<svg width="82" height="96" viewBox="0 0 82 96" fill="none" xmlns="http://www.w3.org/2000/svg">
<g clip-path="url(#clip0_1_46)">
<path d="M28.38 25.91C28.38 25.91 24.55 21.87 20.94 21.02C17.33 20.17 15.84 17.41 15.84 17.41C15.84 17.41 17.54 25.27 19.88 28.46C19.88 28.46 13.72 35.69 12.65 39.09C11.59 42.49 13.07 44.4 12.65 47.17C12.22 49.93 12.44 51.16 13.29 53.21C14.14 55.25 19.8 63.97 26.22 66.3C32.64 68.64 54.11 73.1 63.67 63.75C73.23 54.4 73.45 49.3 72.38 41.64C71.32 33.99 66 27.4 66 27.4C66 27.4 68.98 20.17 69.19 14.65C69.19 14.65 68.55 17.41 65.79 18.9C63.03 20.39 60.26 22.73 59.2 25.07C59.2 25.07 38.87 20.92 28.38 25.92V25.91Z" fill="#E6E7E8"/>
<path d="M45.49 69.72C37.02 69.72 29.11 67.66 26.12 66.56C19.52 64.16 13.87 55.34 13.02 53.3C12.19 51.31 11.92 50.01 12.36 47.11C12.53 45.99 12.38 45.01 12.21 43.97C11.98 42.52 11.74 41.02 12.37 38.99C13.36 35.83 18.53 29.59 19.51 28.44C17.23 25.14 15.62 17.78 15.55 17.47L15.11 15.45L16.09 17.27C16.09 17.27 17.57 19.93 21 20.73C24.3 21.51 27.68 24.79 28.44 25.55C31.9 23.96 36.72 23.15 42.78 23.15C50.42 23.15 57.67 24.46 59.03 24.73C60.29 22.19 63.25 19.93 65.65 18.64C68.25 17.24 68.9 14.61 68.9 14.58L69.48 14.66C69.29 19.72 66.77 26.25 66.33 27.35C67.1 28.34 71.69 34.56 72.66 41.6C73.71 49.13 73.64 54.4 63.86 63.96C59.94 67.79 53.76 69.73 45.47 69.73L45.49 69.72ZM16.46 18.73C17.06 21.12 18.43 25.98 20.12 28.28L20.26 28.47L20.11 28.65C20.05 28.72 13.97 35.87 12.94 39.17C12.35 41.06 12.58 42.5 12.8 43.88C12.97 44.92 13.14 45.99 12.95 47.2C12.53 49.92 12.75 51.11 13.57 53.08C14.29 54.8 19.9 63.67 26.32 66.01C29.28 67.09 37.1 69.13 45.49 69.13C53.88 69.13 59.66 67.25 63.46 63.53C73.04 54.16 73.11 49.03 72.09 41.68C71.05 34.2 65.83 27.65 65.78 27.58L65.67 27.44L65.74 27.28C65.77 27.22 68.1 21.51 68.75 16.44C68.22 17.34 67.34 18.4 65.94 19.15C62.9 20.79 60.43 23.1 59.48 25.18L59.38 25.39L59.15 25.34C59.07 25.32 51.16 23.73 42.79 23.73C36.71 23.73 31.91 24.55 28.51 26.17L28.32 26.26L28.17 26.1C28.17 26.1 24.36 22.12 20.88 21.3C18.71 20.79 17.29 19.62 16.47 18.72L16.46 18.73Z" fill="#231F20"/>
<path d="M34.63 24.05C34.63 24.05 37.1 26.97 37.95 30.37C37.95 30.37 38.02 27.43 36.63 23.77C35.95 23.85 35.29 23.94 34.63 24.05Z" fill="#231F20"/>
<path d="M41.7 23.45C41.66 24.08 41.69 24.75 41.83 25.41C42.4 28.07 43.19 30.67 43.07 33.04C42.96 35.41 42.79 39.82 42.79 39.82C42.79 39.82 43.53 37.5 43.69 35.47C43.86 33.43 44.26 29.65 43.97 27.44C43.83 26.35 43.85 24.77 43.91 23.44C43.18 23.43 42.44 23.43 41.69 23.44L41.7 23.45Z" fill="#231F20"/>
<path d="M49.24 31.74C49.69 30.67 50.03 28.63 51.05 27.33C51.61 26.61 52.1 25.17 52.43 24.03C51.81 23.96 51.15 23.89 50.47 23.82C50.35 24.35 50.24 24.94 50.14 25.58C49.8 27.79 48.78 32.82 49.24 31.74Z" fill="#231F20"/>
<path d="M19.38 43.09C19.38 43.09 20.34 50.03 23.52 51.54C26.71 53.06 32.1 54.73 34.63 50.82C37.15 46.91 37.74 43.09 36.29 38.62C34.84 34.16 29.58 32.48 25.83 33.92C22.08 35.36 19.85 38.62 19.37 43.09H19.38Z" fill="#231F20"/>
<path d="M19.93 42.86C19.93 42.86 21.6 49.56 23.52 50.43C25.43 51.31 32.18 52.74 34.63 49.55C37.08 46.36 36.72 44.12 36.29 40.86C35.86 37.6 32.13 31.93 26.95 35.04C21.77 38.15 19.71 39.26 19.93 42.85V42.86Z" fill="white"/>
<path d="M29.32 51.82C26.79 51.82 24.35 51.13 23.4 50.7C21.41 49.79 19.82 43.63 19.65 42.93C19.42 39.22 21.44 38.01 26.32 35.08L26.8 34.79C27.84 34.16 28.89 33.84 29.92 33.84C33.62 33.84 36.21 37.97 36.59 40.82L36.62 41.03C37.04 44.21 37.34 46.51 34.87 49.73C33.83 51.1 31.91 51.82 29.33 51.82H29.32ZM29.92 34.44C29 34.44 28.05 34.73 27.1 35.3L26.62 35.59C21.82 38.47 20.02 39.54 20.23 42.84C20.68 44.61 22.18 49.49 23.65 50.16C24.55 50.57 26.88 51.22 29.32 51.22C30.99 51.22 33.22 50.9 34.4 49.37C36.72 46.35 36.44 44.26 36.03 41.11L36 40.9C35.7 38.58 33.41 34.44 29.92 34.44Z" fill="#231F20"/>
<path d="M65.68 45.07C65.68 45.07 64.14 51.9 60.83 53.13C57.52 54.37 52.01 55.58 49.82 51.47C47.64 47.36 47.38 43.5 49.2 39.18C51.02 34.85 56.41 33.63 60.02 35.38C63.63 37.13 65.58 40.58 65.67 45.06L65.68 45.07Z" fill="#231F20"/>
<path d="M65.14 44.78C65.14 44.78 62.9 51.31 60.92 52.02C58.94 52.73 52.09 53.59 49.93 50.2C47.77 46.81 48.31 44.61 49.01 41.4C49.71 38.19 53.91 32.86 58.81 36.4C63.71 39.94 65.66 41.22 65.14 44.78Z" fill="white"/>
<path d="M56.34 52.97C54.06 52.97 51.06 52.52 49.69 50.37C47.51 46.95 48 44.69 48.69 41.55L48.73 41.35C49.3 38.73 52.06 34.95 55.54 34.95C56.71 34.95 57.87 35.36 58.99 36.17L59.45 36.5C64.07 39.83 65.98 41.21 65.44 44.83C65.19 45.56 63.09 51.57 61.03 52.3C60.14 52.62 58.29 52.97 56.34 52.97ZM55.54 35.53C52.36 35.53 49.84 39.04 49.31 41.47L49.27 41.67C48.59 44.78 48.14 46.83 50.19 50.04C51.49 52.07 54.6 52.37 56.34 52.37C58.22 52.37 59.98 52.04 60.83 51.74C62.35 51.2 64.26 46.46 64.87 44.68C65.34 41.46 63.64 40.24 59.1 36.97L58.64 36.64C57.62 35.9 56.58 35.53 55.54 35.53Z" fill="#231F20"/>
<path d="M33.48 41.5C33.48 41.5 33.24 45.09 31.97 46.36C31.97 46.36 34.52 44.77 33.48 41.5Z" fill="#231F20"/>
<path d="M28.94 37.59C28.94 37.59 26.04 39.11 26.22 42.37C26.39 45.64 27.43 48.27 28.94 48.59C28.94 48.59 25.83 46.92 25.59 43.93C25.35 40.94 26.15 39.03 28.94 37.59Z" fill="#231F20"/>
<path d="M53.09 46.84C53.09 46.84 52.29 42.54 54.45 40.7C54.45 40.7 55.17 39.42 56.44 38.23H58.19C58.19 38.23 54.68 38.95 54.36 44.45C54.36 44.45 55.08 41.58 56.03 41.02L57.15 40.86C57.15 40.86 53.8 43.41 54.44 49.31C54.44 49.31 53.48 45.11 54.12 42.03C54.12 42.03 53.16 43.09 53.08 46.84H53.09Z" fill="#231F20"/>
<path d="M39.57 54.56C39.57 54.56 39.5 54.56 39.46 54.56C38.65 54.53 38.06 54.15 37.81 53.48C37.58 52.89 37.64 52.22 37.96 51.6C37.85 51.67 37.75 51.75 37.65 51.83L37.61 52.03L37.4 52.07C37.25 52.1 37.1 52 37.04 51.9L36.93 51.73L36.96 51.7C36.78 51.6 36.62 51.49 36.49 51.35L36.52 51.32L36.3 51.09C36.36 51.03 36.42 51 36.45 50.99L36.66 50.69L36.92 50.94C37.06 51.09 37.25 51.2 37.43 51.27C37.9 50.92 38.42 50.65 38.96 50.45C39.23 50.25 39.51 50.09 39.8 49.99C39.91 49.91 40.03 49.84 40.14 49.78C40.85 49.45 41.73 49.49 42.44 49.82C42.53 49.82 42.65 49.8 42.79 49.79C44.19 49.66 44.94 49.67 45.18 50.09C45.26 50.23 45.34 50.47 45.23 50.8C45.01 51.51 43.98 52.32 43.26 52.8C42.56 53.73 40.84 54.57 39.57 54.58V54.56ZM39.28 53.32C39.35 53.36 39.44 53.38 39.54 53.4C39.44 53.35 39.34 53.29 39.25 53.22C39.21 53.19 39.17 53.16 39.14 53.12C39.18 53.19 39.22 53.26 39.28 53.32ZM40.9 52.28C40.9 52.28 40.75 52.33 40.6 52.43C40.73 52.39 40.85 52.34 40.91 52.29C40.91 52.29 40.9 52.29 40.89 52.28H40.9ZM43.19 50.33C43.57 50.73 43.73 51.23 43.68 51.75C44.15 51.37 44.57 50.94 44.68 50.6C44.72 50.47 44.7 50.4 44.68 50.36C44.53 50.23 43.72 50.28 43.2 50.32L43.19 50.33Z" fill="#231F20"/>
<path d="M15.71 49.84C15.71 49.84 23.36 59.2 28.22 59.92C33.09 60.64 36.99 60.8 39.46 61.04C41.93 61.28 44.72 60.72 46.87 60.64C49.02 60.56 54.84 60.48 57.39 60.08C59.94 59.68 65.52 57.71 67.67 52.68C67.67 52.68 63.69 61.2 59.78 63.11C55.87 65.02 41.13 70.44 31.96 66.14C22.79 61.84 17.39 58.26 14.82 49.85C14.82 49.85 14.16 48.08 15.7 49.85L15.71 49.84Z" fill="#231F20"/>
<path d="M24.72 59.67L26.22 64.69C26.22 64.69 26.35 65.04 26.49 63.35C26.63 61.66 27.25 60.71 27.25 60.71L24.72 59.67Z" fill="white"/>
<path d="M30.78 61.27C30.78 61.27 31.98 65.34 32.53 65.1C33.09 64.86 34.63 61.27 34.63 61.27H30.78Z" fill="white"/>
<path d="M36.29 61.59C36.29 61.59 37.15 65.04 37.95 65.11C38.75 65.18 39.46 61.59 39.46 61.59H36.29Z" fill="white"/>
<path d="M41.19 62.2C41.19 62.2 42.9 66.29 43.53 66.13C44.17 65.97 45.52 62.2 45.52 62.2H41.18H41.19Z" fill="white"/>
<path d="M46.64 61.27C46.64 61.27 47.29 65.6 48 65.11C48.71 64.62 51.26 61.59 51.26 61.59L46.64 61.27Z" fill="white"/>
<path d="M51.26 61.27C51.26 61.27 52.72 64.52 52.95 64.17C53.17 63.82 54.45 61.27 54.45 61.27H51.26Z" fill="white"/>
<path d="M54.93 60.71L55.57 63.35L57.16 60.71H54.93Z" fill="white"/>
<path d="M20.41 55.77C20.41 55.77 21.93 62.15 22.32 62.03C22.72 61.91 22.32 57.52 22.32 57.52L20.41 55.77Z" fill="white"/>
<path d="M58.2 60.71C58.2 60.71 57.72 64.91 58.2 64.72C58.68 64.53 60.03 59.67 60.03 59.67L58.2 60.71Z" fill="white"/>
<path d="M20.11 49.82C20.11 49.82 19.83 49.65 19.33 49.36C18.83 49.07 18.11 48.66 17.23 48.19C15.47 47.26 13.06 46.11 10.55 45.25C8.05 44.37 5.43 43.83 3.46 43.93C2.97 43.94 2.52 44 2.13 44.07C1.94 44.11 1.75 44.15 1.59 44.19C1.43 44.24 1.28 44.29 1.14 44.33C0.860001 44.4 0.670001 44.52 0.530001 44.57C0.390001 44.63 0.320001 44.66 0.320001 44.66H0.300001C0.190001 44.72 0.0700011 44.66 0.0200011 44.56C-0.0199989 44.45 0.0200011 44.33 0.120001 44.28C0.120001 44.28 0.200001 44.24 0.340001 44.17C0.490001 44.11 0.700001 43.98 0.980001 43.89C1.12 43.84 1.28 43.78 1.45 43.72C1.63 43.68 1.82 43.63 2.02 43.58C2.43 43.49 2.9 43.42 3.41 43.38C5.47 43.21 8.2 43.67 10.78 44.48C13.38 45.27 15.86 46.36 17.69 47.24C18.6 47.68 19.36 48.07 19.88 48.35C20.4 48.64 20.7 48.81 20.7 48.81C20.99 48.97 21.09 49.33 20.93 49.61C20.77 49.9 20.41 50 20.13 49.84C20.13 49.84 20.12 49.84 20.11 49.84H20.09L20.11 49.82Z" fill="white"/>
<path d="M18.53 51.44C18.53 51.44 18.25 51.35 17.77 51.2C17.28 51.05 16.57 50.85 15.72 50.64C14.01 50.22 11.69 49.76 9.35 49.6C8.18 49.52 7 49.51 5.9 49.6C5.35 49.64 4.83 49.71 4.33 49.8C3.84 49.89 3.37 50 2.95 50.11C2.53 50.23 2.15 50.36 1.82 50.5C1.49 50.62 1.21 50.78 0.98 50.88C0.75 51 0.58 51.11 0.46 51.18C0.34 51.25 0.28 51.29 0.28 51.29C0.23 51.33 0.15 51.31 0.12 51.25C0.0900002 51.2 0.1 51.13 0.16 51.1C0.16 51.1 0.22 51.06 0.34 50.98C0.46 50.91 0.63 50.78 0.86 50.65C1.09 50.53 1.37 50.36 1.7 50.21C2.03 50.05 2.42 49.9 2.85 49.75C3.28 49.61 3.75 49.47 4.26 49.36C4.77 49.25 5.3 49.15 5.87 49.08C6.99 48.94 8.2 48.88 9.4 48.9C11.81 48.94 14.2 49.29 15.97 49.63C16.85 49.8 17.59 49.97 18.1 50.1C18.61 50.23 18.91 50.31 18.91 50.31C19.22 50.4 19.4 50.73 19.31 51.04C19.22 51.35 18.89 51.53 18.58 51.44C18.58 51.44 18.58 51.44 18.57 51.44H18.56H18.53Z" fill="white"/>
<path d="M15.95 54.9C15.95 54.9 15.89 54.9 15.77 54.9C15.66 54.9 15.49 54.9 15.27 54.9C14.83 54.9 14.2 54.94 13.45 55.02C13.07 55.07 12.66 55.11 12.24 55.19C11.81 55.26 11.36 55.35 10.9 55.46C10.43 55.55 9.97 55.72 9.49 55.85C9.02 56.02 8.54 56.18 8.07 56.38C7.61 56.6 7.13 56.78 6.71 57.05C6.27 57.3 5.84 57.54 5.47 57.83C5.27 57.97 5.09 58.11 4.9 58.24C4.72 58.38 4.56 58.54 4.4 58.68C4.08 58.98 3.75 59.24 3.52 59.55C3.27 59.84 3.04 60.11 2.84 60.34C2.67 60.6 2.52 60.83 2.39 61.02C2.14 61.4 2 61.61 2 61.61C2 61.61 1.93 61.66 1.9 61.64C1.87 61.62 1.86 61.58 1.88 61.54C1.88 61.54 2.01 61.32 2.24 60.92C2.35 60.72 2.49 60.48 2.65 60.2C2.84 59.95 3.06 59.66 3.3 59.34C3.52 59.01 3.83 58.72 4.15 58.39C4.31 58.23 4.46 58.05 4.64 57.9C4.82 57.75 5.01 57.6 5.2 57.44C5.57 57.11 6 56.83 6.44 56.55C6.86 56.24 7.35 56.03 7.81 55.77C8.28 55.53 8.77 55.33 9.25 55.12C9.74 54.95 10.21 54.75 10.69 54.62C11.16 54.47 11.63 54.34 12.07 54.25C12.51 54.13 12.94 54.07 13.33 53.99C14.12 53.86 14.78 53.78 15.24 53.74C15.47 53.72 15.66 53.71 15.79 53.7C15.91 53.7 15.98 53.7 15.98 53.7C16.31 53.69 16.58 53.94 16.59 54.27C16.6 54.6 16.35 54.87 16.02 54.88H15.97L15.95 54.9Z" fill="white"/>
<path d="M62.81 52.27C62.81 52.27 63.75 51.29 65.24 49.94C66.73 48.59 68.78 46.84 71.01 45.32C72.12 44.56 73.27 43.85 74.4 43.28C74.96 42.99 75.53 42.74 76.07 42.52C76.61 42.31 77.14 42.14 77.63 42.01C77.88 41.95 78.12 41.89 78.35 41.85C78.58 41.81 78.8 41.78 79.01 41.75C79.43 41.72 79.79 41.7 80.09 41.73C80.39 41.73 80.63 41.79 80.79 41.81C80.95 41.84 81.03 41.85 81.03 41.85C81.13 41.87 81.2 41.96 81.18 42.06C81.16 42.16 81.07 42.23 80.97 42.21H80.95C80.95 42.21 80.87 42.2 80.72 42.18C80.57 42.16 80.35 42.12 80.07 42.13C79.79 42.11 79.45 42.15 79.05 42.19C78.86 42.23 78.65 42.26 78.43 42.31C78.22 42.36 77.99 42.43 77.75 42.49C77.28 42.63 76.79 42.82 76.27 43.04C75.76 43.27 75.22 43.53 74.69 43.83C73.61 44.43 72.51 45.16 71.45 45.95C69.33 47.52 67.37 49.32 65.96 50.7C65.25 51.39 64.68 51.99 64.28 52.41C63.89 52.83 63.67 53.07 63.67 53.07C63.45 53.31 63.07 53.33 62.83 53.11C62.59 52.89 62.58 52.51 62.8 52.27H62.81Z" fill="white"/>
<path d="M64.31 52.69C64.31 52.69 64.52 52.57 64.89 52.37C65.26 52.17 65.78 51.9 66.42 51.59C67.7 50.98 69.45 50.24 71.28 49.73C72.19 49.47 73.13 49.28 74.02 49.19C74.47 49.14 74.9 49.11 75.31 49.12C75.72 49.12 76.12 49.15 76.48 49.2C76.84 49.24 77.17 49.32 77.45 49.41C77.74 49.49 77.98 49.59 78.17 49.68C78.37 49.76 78.51 49.86 78.61 49.91C78.71 49.97 78.76 50 78.76 50C78.88 50.07 78.92 50.21 78.86 50.33C78.8 50.44 78.65 50.49 78.54 50.43H78.51C78.51 50.43 78.46 50.39 78.37 50.35C78.27 50.31 78.15 50.23 77.96 50.16C77.78 50.09 77.56 50.01 77.3 49.95C77.04 49.89 76.74 49.83 76.4 49.8C76.07 49.76 75.7 49.76 75.32 49.77C74.93 49.77 74.53 49.83 74.11 49.89C73.27 50.02 72.39 50.25 71.52 50.53C69.78 51.1 68.12 51.89 66.9 52.54C66.29 52.86 65.8 53.15 65.45 53.36C65.11 53.57 64.92 53.69 64.92 53.69H64.9C64.62 53.88 64.26 53.79 64.09 53.51C63.92 53.23 64 52.87 64.28 52.7C64.28 52.7 64.3 52.7 64.3 52.69H64.31Z" fill="white"/>
<path d="M69.62 54.37C69.62 54.37 70.27 54.65 71.21 55.11C72.15 55.57 73.39 56.21 74.58 56.94C75.18 57.31 75.77 57.69 76.29 58.08C76.56 58.27 76.81 58.46 77.04 58.66C77.28 58.85 77.49 59.04 77.68 59.23C77.88 59.41 78.04 59.59 78.18 59.76C78.32 59.93 78.45 60.06 78.53 60.21C78.7 60.48 78.8 60.63 78.8 60.63C78.85 60.71 78.83 60.82 78.75 60.87C78.67 60.92 78.57 60.9 78.52 60.83L78.5 60.8C78.5 60.8 78.4 60.67 78.23 60.44C78.15 60.32 78.02 60.2 77.88 60.06C77.74 59.91 77.57 59.76 77.37 59.6C77.18 59.44 76.96 59.27 76.72 59.11C76.49 58.94 76.23 58.77 75.96 58.6C75.42 58.26 74.82 57.93 74.22 57.62C73.01 57 71.75 56.46 70.79 56.08C69.83 55.7 69.2 55.48 69.2 55.48C68.89 55.37 68.73 55.04 68.83 54.73C68.94 54.42 69.28 54.26 69.58 54.36C69.59 54.36 69.61 54.36 69.62 54.38V54.37Z" fill="white"/>
<path d="M17.33 20.59C17.33 20.59 19.03 22.36 20.41 23.44C21.79 24.52 22 26.33 22 26.33L19.91 27.07C19.91 27.07 17.85 23.67 17.32 20.59H17.33Z" fill="#231F20"/>
<path d="M62.39 27.86C62.39 27.86 67.16 21.04 68.13 18.47L65.68 27.86C65.68 27.86 64.52 28.86 62.39 27.86Z" fill="#231F20"/>
<path d="M52.75 23.88C53.35 22.4 53.86 20.9 54.37 19.39C54.59 18.75 54.76 18.05 54.98 17.38L55.33 16.47C55.56 15.97 55.84 15.5 56.24 15.1C56.64 14.71 56.12 14 55.63 14.31C53.79 15.51 51.6 15.91 49.63 16.82C49.56 16.51 49.46 16.21 49.32 15.89C48.61 14.34 48.13 12.79 47.68 11.15C46.86 8.14 45.39 5.4 44.87 2.29C44.78 1.77 44.04 1.86 43.91 2.29C42.5 6.74 40.76 11.11 39.54 15.62C38.61 15.25 37.74 14.68 36.83 14.32C35.27 13.71 33.86 13.13 32.51 12.12C32.14 11.84 31.67 12.3 31.78 12.68C32.35 14.82 32.96 16.96 33.47 19.12C33.82 20.6 33.97 22.12 34.53 23.53C34.49 23.71 34.53 23.89 34.73 24.02L52.52 24.13C52.62 24.08 52.7 24 52.75 23.88Z" fill="black"/>
<path d="M31.12 10.88C30.88 10.65 30.51 10.74 30.35 10.97C30.12 11.17 30.06 11.54 30.36 11.74C30.37 11.78 30.39 11.82 30.4 11.87C30.51 12.37 31.23 12.33 31.36 11.87C31.49 11.44 31.45 11.19 31.12 10.88Z" fill="#E2B224"/>
<path d="M44.67 0.140003C44.42 -0.109997 44.07 -0.0199967 43.88 0.240003C43.88 0.250003 43.87 0.260003 43.86 0.270003C43.73 0.350003 43.64 0.480003 43.63 0.640003C43.51 0.870003 43.66 1.15 43.88 1.27C43.88 1.27 43.9 1.29 43.9 1.3C44.14 1.58 44.66 1.43 44.74 1.08C44.81 0.720003 44.98 0.450003 44.67 0.140003Z" fill="#E2B224"/>
<path d="M57.71 13.62C57.71 13.62 57.71 13.58 57.71 13.56C57.8 13.18 57.43 12.87 57.12 12.93C56.77 12.85 56.48 13.21 56.54 13.56C56.54 13.6 56.56 13.64 56.57 13.68C56.52 14.05 57.04 14.43 57.44 14.11C57.46 14.1 57.47 14.08 57.49 14.06C57.51 14.04 57.54 14.03 57.56 14.01C57.57 14 57.59 13.98 57.6 13.95C57.68 13.85 57.72 13.75 57.73 13.65C57.75 13.6 57.75 13.57 57.73 13.6L57.71 13.62Z" fill="#E2B224"/>
<path d="M48.44 20.18C48.44 20.18 48.41 20.17 48.4 20.17C48.37 20.17 48.4 20.17 48.44 20.18Z" fill="#830F0A"/>
<path d="M54.99 17.38L55.04 17.24C54.52 18.1 52.95 20.59 52.95 20.59C52.95 20.59 48.91 20.24 48.44 20.18C48.9 20.29 51.79 22.17 51.79 22.17C51.79 22.17 50.96 24.36 51.09 24.17C51.22 23.98 52.95 22.92 52.95 22.92L53.07 23.02C53.53 21.82 53.95 20.61 54.37 19.39C54.59 18.75 54.76 18.05 54.98 17.38H54.99Z" fill="#E2B224"/>
</g>
<g clip-path="url(#clip1_1_46)">
<path fill-rule="evenodd" clip-rule="evenodd" d="M19.15 81.6101C18.13 85.3001 19.04 87.0801 19.81 90.4801C20.03 90.5901 20.25 90.7001 20.47 90.8101V87.1901C21.96 87.7301 21.91 88.1101 22.11 89.8201H23.42C23.26 86.2201 22 84.6201 21.12 81.9301C20.46 81.8201 19.81 81.7101 19.15 81.6001V81.6101ZM20.46 85.5501C20.35 85.0001 20.24 84.4501 20.13 83.9101C20.35 84.4601 20.57 85.0101 20.79 85.5501H20.46ZM11.92 87.8501C12.58 86.5401 13.23 85.2201 13.89 83.9101C12.39 81.8501 10.44 81.6001 8.3 80.9501C7.11 82.7101 5.2 83.0701 4.03 84.8901V86.2001C5.55 85.3301 5.6 84.4001 7.65 83.9001C6.18 88.6501 8.02 92.8501 10.94 94.4201C13 93.0501 13.99 92.1301 13.9 88.5001C13.24 88.2801 12.59 88.0601 11.93 87.8401L11.92 87.8501ZM9.94 82.9201C10.38 83.0301 10.82 83.1401 11.25 83.2501C11.58 83.3601 11.91 83.4701 12.24 83.5801V84.8901C11.13 86.0901 10.33 87.2101 8.95 88.1801C8.83 85.7501 8.87 84.0801 9.93 82.9201H9.94ZM12.24 90.4801C11.8 91.1401 11.36 91.8001 10.93 92.4501H10.6C10.38 92.0101 10.16 91.5701 9.94 91.1401C9.72 90.9201 9.5 90.7001 9.28 90.4801C9.94 90.0401 10.59 89.6001 11.25 89.1701C11.69 89.2801 12.13 89.3901 12.56 89.5001C12.45 89.8301 12.34 90.1601 12.23 90.4801H12.24ZM16.19 91.1301C16.31 88.2401 17.26 83.7901 15.86 81.9301C15.31 85.3201 14.76 88.7201 14.22 92.1201C14.33 92.4501 14.44 92.7801 14.55 93.1101C16.64 93.0101 17.81 92.6101 18.82 91.4701C17.64 90.9501 17.78 91.0301 16.19 91.1401V91.1301ZM35.25 85.5501C35.94 83.0001 37.68 79.5901 34.92 77.6601C35.46 80.3101 34.93 82.5501 34.26 84.5601C33.71 85.0001 33.16 85.4401 32.62 85.8701C32.29 83.5701 31.96 81.2701 31.63 78.9701C31.41 78.8601 31.19 78.7501 30.97 78.6401C29.77 81.2801 31.54 84.0401 30.97 86.8601C29.76 89.3801 28.56 91.9001 27.35 94.4201V95.7301H28.66C29.9 91.8901 31.8 89.3101 33.92 86.5301H34.91C35.95 88.3301 35.99 90.8201 36.88 93.1001V93.7601C39.74 92.5601 36.98 86.5001 35.24 85.5501H35.25ZM66.14 72.7301C65.59 73.0601 65.04 73.3901 64.5 73.7201V74.0501C67.07 73.0701 71.9 72.7201 75.34 77.9901C75.87 80.0301 75.88 81.7901 75.67 84.2301C74.36 83.0201 73.04 81.8201 71.73 80.6101C71.51 80.7201 71.29 80.8301 71.07 80.9401C70.63 82.8001 70.19 84.6601 69.76 86.5301C69.32 87.0801 68.88 87.6301 68.45 88.1701H68.78C70.83 87.1701 71.65 85.4801 71.74 82.5801C73.62 83.8001 74.28 85.7801 76.67 86.5201C78.59 78.0201 74.85 72.4501 66.14 72.7301ZM68.77 80.2901V79.6301H67.46C67.57 80.0701 67.68 80.5101 67.79 80.9401V82.9101H67.46C67.24 82.1401 67.02 81.3701 66.8 80.6101C66.47 80.3901 66.14 80.1701 65.81 79.9501C64.88 80.8301 64.79 81.2901 64.82 83.2401C64.38 82.2501 63.94 81.2701 63.51 80.2801C63.29 80.1701 63.07 80.0601 62.85 79.9501H62.52C62.53 82.0901 62.83 83.1501 63.83 84.2201C64.16 84.6601 64.49 85.1001 64.82 85.5301H65.15C65.48 84.8701 65.81 84.2201 66.14 83.5601C66.87 84.4101 67.11 84.9001 68.11 85.5301C68.33 85.2001 68.55 84.8701 68.77 84.5401V80.2701V80.2901ZM57.6 79.3001C56.32 81.6101 56.25 84.5101 59.24 85.8701C59.79 85.6501 60.34 85.4301 60.88 85.2101C61.13 83.3101 60.99 82.2901 60.55 80.6101C59.44 79.8301 59.49 79.4901 57.59 79.3001H57.6ZM59.9 84.2301H58.59C58.37 83.6801 58.15 83.1301 57.93 82.5901C58.15 82.0401 58.37 81.4901 58.59 80.9501C59.38 81.5001 59.44 81.7401 59.9 82.5901V84.2301ZM28.02 91.4601C27.36 91.1301 26.71 90.8001 26.05 90.4701C25.94 89.8101 25.83 89.1601 25.72 88.5001C26.43 86.7901 27.01 85.6101 28.35 84.5601C28.88 85.2101 28.8 85.0101 29.01 86.2001H29.67V83.9001C28.9 83.6801 28.14 83.4601 27.37 83.2401C25.6 85.4601 23.59 87.1701 24.41 91.1301C24.96 91.5701 25.51 92.0101 26.05 92.4401C27.66 92.2501 27.28 92.3701 28.02 91.4501V91.4601ZM55.36 80.4501L53.98 78.6501C52.88 78.3201 51.79 77.9901 50.69 77.6601C50.47 78.5401 50.25 79.4101 50.03 80.2901C48.47 78.8301 47.77 78.8701 45.1 78.9801C42.43 81.2101 40.73 83.3301 42.14 87.8501C43.45 88.5101 44.77 89.1601 46.08 89.8201C46.96 89.0601 46.92 89.5201 47.39 88.1801C44.69 88.2401 43.66 87.6501 43.12 85.5501C43.34 84.2401 43.56 82.9201 43.78 81.6101C46.31 80.0101 47.66 80.6801 50.02 80.6201C50.24 83.8001 50.46 86.9701 50.68 90.1501C51.12 90.2601 51.56 90.3701 51.99 90.4801C52.1 88.8401 52.21 87.1901 52.32 85.5501C52.65 85.3301 52.98 85.1101 53.3 84.8901C54.33 87.6601 55.25 90.8801 55.27 94.7501C56.88 93.9801 55.72 86.8401 54.77 82.2501L55.33 80.4501H55.36ZM52.67 83.2501C52.34 83.4701 52.01 83.6901 51.68 83.9101V78.9801C52.12 79.0901 52.56 79.2001 52.99 79.3101C53.1 79.9701 53.21 80.6201 53.32 81.2801C53.1 81.9401 52.88 82.5901 52.66 83.2501H52.67Z" fill="white"/>
</g>
<defs>
<clipPath id="clip0_1_46">
<rect width="81.18" height="69.72" fill="white"/>
</clipPath>
<clipPath id="clip1_1_46">
<rect width="73.12" height="23.02" fill="white" transform="translate(4.03 72.72)"/>
</clipPath>
</defs>
</svg>
