<?xml version="1.0" encoding="UTF-8"?><svg id="Layer_2" xmlns="http://www.w3.org/2000/svg" viewBox="0 0 377.82 415.54"><g id="Layer_1-2"><path d="M99.36,195.78c-.13,6.26-.94,21.26,1.19,26.39.91,2.19,5.28,4.87,7.53,5.41,5.75,1.38,14.06-.2,19.1-3.26,3.94-2.39,4.05-3.52,3.82-8.16-.38-7.61-3.27-15.67-4.3-23.24,24.15-3.04,50.04.36,71.46,12.19,35,19.34,56.58,50.51,98.29,59.02,2.58.53,7.26.58,9.29,1.26,1.39.47,1.36,3.02,1.28,4.23h-14.63c-.66,0-3.58.71-4.12,1.16-4.78,3.93,5.66,5.67,7.56,6.43,7.31,2.91,17.2,11.45,20.98,18.35.52.96,2.19,3.22.45,3.75-3.03.93-16.53-7.97-21.07-8.55-3.28-.42-4.92.56-3.59,3.96,6.05,3.71,12.11,7.65,16.84,13.01,2.11,2.4,6.28,7.88,7.58,10.64.28.59.69.98.49,1.74-.3,1.17-5.07,4.61-5.22,6.57h-.69c-6.03-4.79-12.56-9.59-19.3-13.33-2.03-1.13-5.57-3.84-7.82-2.74-1.6.78-1.44,2.72-.68,4.04,1.53,2.64,7.59,7.48,10.04,10.59s8.8,14.27,6.7,17.75c-.33.55-7.97,5.37-8.53,5.23-2.93-1.82-10-9.89-13.05-10.07-6.25-.37-.29,8.8.48,11.55.4,1.42,1.56,6.73.97,7.68-6.79,3.23-13,9.8-21.15,7.7-3.24-4.29-6.64-8.76-10.75-12.27-1.68-1.43-8.28-6.58-9.12-1.89s8.02,17.91,6.01,20.86c-.13.19-3.03,1.42-3.35,1.43-.48.01-3.63-7.39-4.38-8.61-5.49-8.92-14.09-16.9-24.15-20.23,2.61-10.11-3.02-20.12-14.42-17.22-1.92-15.81-12.28-27.84-24.5-37.13-2.43-1.84-13.02-7.96-13.88-9.14-1.26-1.75-.67-3.38-1.07-5.16-2.1-9.22-6.15-17.42-12.36-24.57-2.14-2.47-5.96-6.78-8.13-1.92-.34,5.94-.08,12.33-.5,18.21-.12,1.76-.82,9.76-1.92,10.55-.71.51-6.13,1.15-7.41,1.23-10.51.66-22-.21-32.65-.04-5.29.08-11.49,1.01-16.76,1.02-2.43,0-5.86-.55-8.17-.99-.4-.83-.62-1.72-.71-2.64-.97-9.54.75-22.36,4.22-31.26.84-2.15,2.77-3.18,1.91-6.05-1.24-4.15-7.86,2.09-9.28,3.48-7.52,7.35-15.33,19.15-18.94,29.02-.63,1.72-1.82,7.45-2.35,8.2-.48.67-2.32,1.43-3.14,2.14-5.95,5.15-13.33,12.87-17.24,19.69-1.38,2.41-4.5,7.66.2,8.12-.13.18-.85,3.67-.96,4.32-4.04-5.04-5.04.85-5.3,4.54-.88,12.43,1.85,17.75,4.68,28.93,1.69,6.68,2.67,13.52,4.93,20.04-.04,1.08-2.46,2.05-3.3,2.9-6.03,6.06-7.02,13.57-5.81,21.77-3.21.72-2.55-3.19-2.39-5.51.2-2.83,3.89-12.49-2.07-10.7-2.66.8-5.73,10.79-6.63,11.35s-3.83-.79-3.71-2.02c.06-.59,4.49-8.48,5.23-10.62,7.35-21.25,2.76-47.34,4.78-69.55,2.45-26.92,20.9-65.54,41.23-83.46,9.87-8.7,22.1-14.21,33.85-19.87,1.22-1.04.59-2.57.21-3.87,2.74-.63,5.4-1.79,8.15-2.4Z" fill="#fddc6f"/><path d="M369.98,263.52c-5.11-1.15-12.92-.32-17.97.98-5.1,1.31-9.9,3.59-14.73,5.59-9.38-14.31-22.05-27.57-37.39-35.52-.43-.74,1.65-3.62,2.09-4.75,1.71-4.42,2.22-7.3.97-11.98-4.24-15.87-26.05-8.56-36.22-3.13-1.38.74-7.04,4.85-7.48,4.93-1.43.27-4.82-.62-7.4-.14-4.58.84-9.87,4.56-14.13,6.48-14.9-9.97-28.66-22.2-45.15-29.65-20.35-9.2-44.75-11.15-66.78-8.76-1.86-7.76-4.11-15.51-5.67-23.34-2.42-12.16-2.93-25.71-5.74-37.43-.29-1.21-.77-3.37-1.39-4.36-1.54-2.5-4.73-2.64-6.06.1-1.41,2.88-2.65,11.07-3.19,14.56-2.84,18.62-3.99,39.88-4.38,58.68-.13,6.26-.94,21.26,1.19,26.39.9,2.19,5.28,4.87,7.53,5.42,5.75,1.38,14.06-.2,19.11-3.27,3.93-2.39,4.05-3.52,3.82-8.15-.39-7.61-3.27-15.68-4.3-23.24,24.15-3.04,50.04.36,71.46,12.19,34.99,19.34,56.57,50.52,98.29,59.02,2.57.53,7.26.58,9.29,1.26,1.38.47,1.36,3.02,1.28,4.24h-14.63c-.66,0-3.58.71-4.12,1.16-4.78,3.93,5.66,5.67,7.56,6.43,7.31,2.91,17.2,11.45,20.98,18.35.52.96,2.19,3.21.45,3.75-3.04.93-16.53-7.97-21.08-8.55-3.27-.41-4.92.56-3.59,3.96,6.05,3.71,12.12,7.64,16.84,13.01,2.11,2.41,6.28,7.88,7.58,10.65.28.59.69.98.49,1.74-.3,1.17-5.06,4.61-5.22,6.57l-.68-.02c-6.03-4.77-12.57-9.57-19.31-13.31-2.02-1.13-5.57-3.84-7.82-2.74-1.6.79-1.43,2.72-.67,4.04,1.53,2.64,7.59,7.48,10.04,10.59,2.38,3.03,8.8,14.27,6.7,17.75-.34.55-7.97,5.37-8.53,5.22-2.93-1.82-10-9.88-13.05-10.06-6.26-.37-.29,8.79.48,11.55.4,1.42,1.56,6.73.97,7.68-6.79,3.23-13,9.8-21.15,7.7-3.24-4.29-6.63-8.76-10.75-12.27-1.68-1.43-8.28-6.58-9.11-1.89-.83,4.64,8.02,17.92,6.01,20.86-.13.2-3.03,1.43-3.36,1.44-.24,0-1.15-1.85-2.09-3.85-.12-.25-.24-.5-.35-.75-.82-1.77-1.61-3.48-1.93-4.01-5.49-8.92-14.1-16.9-24.15-20.23,2.61-10.11-3.03-20.11-14.42-17.22-1.92-15.81-12.28-27.83-24.5-37.13-2.43-1.84-13.03-7.96-13.88-9.14-1.26-1.75-.67-3.38-1.07-5.16-2.1-9.22-6.15-17.42-12.36-24.57-2.15-2.47-5.96-6.78-8.13-1.92-.34,5.93-.08,12.32-.5,18.21-.12,1.76-.82,9.75-1.92,10.54-.71.52-6.13,1.15-7.4,1.23-10.51.66-22-.21-32.66-.04-5.28.08-11.49,1.01-16.76,1.02-2.43,0-5.85-.56-8.16-.99-.41-.84-.62-1.73-.71-2.65-.98-9.54.74-22.36,4.22-31.26.84-2.16,2.77-3.18,1.91-6.05-1.24-4.15-7.86,2.1-9.27,3.48-7.52,7.35-15.33,19.15-18.94,29.02-.63,1.72-1.82,7.45-2.36,8.2-.47.67-2.32,1.43-3.13,2.14-5.95,5.14-13.33,12.86-17.24,19.69-1.38,2.41-4.5,7.66.2,8.11.05-.06.96-.09,1.46-.68.75-.87,2.1-4.45,3.14-5.99,3.11-4.6,8.03-10.55,12.18-14.19,1.68-1.48,7.15-4.87,7.9-6.01,1.18-1.78,1.78-6.43,2.65-8.86,2.9-8.08,7.2-15.27,12.72-21.81,1.04-.2.74.46.71,1.18-.3,7.21-1.97,14.69-1.45,22.09.42,6.01.82,8.78,7.43,9.35,7.43.64,15.18-.45,22.54-.51,10.96-.1,22.81.68,33.62.04,3.28-.2,10.34-.7,12.13-3.69,3.37-5.63,1.77-18.15,2.71-24.63,4.25,4.84,7.45,9.95,9.22,16.2.79,2.79,1.31,9.49,2.32,11.11,1.39,2.25,11.29,7.55,14.27,9.71,14.67,10.62,21.29,19.5,24.36,37.51.99,5.87,5.54.55,9.19.87,7.15.64,7.43,13.02.22,15.83-1.54.6-3.42.59-5.03,1.19-.71.27-.52,1.73-2.99,1.1-1.38,4.28-1.96,8.59-3.75,12.8-3.22,7.56-9.76,12.34-16.73,16.36-8.53,4.94-15.54,5.48-25.08,6.81-19.66,2.75-38.94,3.7-58.77,2.9-12.55-.51-25.17-1.13-37.15-5.3-17.97-6.24-18.16-13.1-22.54-29.73-3.66-13.85-8.74-24.36-6.24-39.33-4.03-5.04-5.03.86-5.29,4.54-.88,12.43,1.84,17.75,4.68,28.93,1.69,6.68,2.67,13.52,4.92,20.04-.04,1.08-2.46,2.05-3.3,2.9-6.03,6.06-7.02,13.56-5.81,21.77-3.2.72-2.55-3.19-2.38-5.51.2-2.84,3.88-12.49-2.07-10.7-2.66.79-5.73,10.78-6.63,11.35-.93.58-3.84-.79-3.72-2.02.06-.58,4.49-8.48,5.23-10.61,7.35-21.26,2.76-47.34,4.78-69.56,2.46-26.92,20.91-65.53,41.24-83.46,9.86-8.7,22.1-14.21,33.84-19.86,1.22-1.05.59-2.58.22-3.87-8.38,1.92-13.31,4.32-20.95,8.55-35.02,19.38-58.55,66.98-60.13,106.29-.83,20.82,2.88,46.82-6.43,65.99-2.18,4.5-6.57,6.86-.97,11.47,1.72,1.41,3.47,2.29,5.73,2.43,1.05.07,4.31-.45,4.57-.29.61.38,1.09,2.37,1.7,3.13,2.43,3.04,7.56,1.11,9.33,2.18.68.42,4.14,4.81,5.53,5.98,14.2,11.94,34.92,13.59,52.52,9.86,10.09-2.13,22.73-6.78,21.08-19.44,4.51.16,8.98-.08,13.43-.47-2.87,8.05,2.05,13.35,8.8,16.86,10.78,5.61,37.25,4.67,49.4,2.72,10.33-1.65,25.14-6.95,32.93-14.06,1.16-1.06,3.78-5.04,4.31-5.29,1.25-.6,8.31-1.22,10.66-1.81,17.62-4.45,44.72-15.53,59.81-25.57,13.56-9.02,26.98-18.99,40-28.58,9.25-6.81,19.31-15.64,25.17-25.66,1.09-1.87,2.37-5.86,3.44-7.11,1.39-1.62,7.67-5.07,10.09-7.18,4.37-3.81,14.34-13.74,16.05-18.96,1.81-5.55-1.08-14.3-7.3-15.7ZM109.42,134.12c.2-.81-.48-1.4.97-1.17l1.44,12.95h-3.84c.5-3.75.53-8.15,1.43-11.78ZM107.52,148.3c1.74.76,3.03.1,4.79,0l.95,6.68c-8.59,3.86-5.61-.46-5.74-6.68ZM125.27,219.53c-1.99,2.22-12.33,4-15.27,3.26-1.42-.36-5.84-2.78-5.84-4.23v-12.71c1.83.47,9.13,1.51,9.13-1.2,0-1.99-3.79-.61-5.48-.76-.94-.09-3.74-.59-3.7-1.63l2.44-43.41c2.67.35,4.71-.29,7.19-.96l6.69,30.01c-.93,3.79-7.17,2.59-6.68,6.44,3.1.57,5.02-1.54,7.67-2.4.73,6.43,2.78,12.7,3.7,19.09.27,1.88,1.3,7.2.15,8.5ZM67.47,251.89v-.48c.31.16.31.32,0,.48ZM96.69,401.02c-5.39,8.1-27.5,9.74-36.41,9.14-14.45-.98-38.77-10.6-34.56-28.8.47-2.06,3.88-8.16,5.81-8.59.85-.19,3.03,3.88,3.8,4.78,9.76,11.41,30.7,15.04,45.09,15.82,4.65.25,12.63-.78,16.7.56,1.9.63.55,5.61-.43,7.09ZM212.99,376.8c-1.43,1.62-2.97,10.18-4.55,13.19-8.65,16.45-42.02,20.27-58.5,19.71-7.38-.25-23.31-.9-27.97-7.52-1.87-2.66-2-6.74.86-8.59,11.52-.46,22.93-1.95,34.33-3.57,1.21-.17,2.55.16,3.79-.04,12.57-2.01,30.36-13.08,35.38-25.05.77-1.85,1.86-6.94,2.56-7.99.4-.6,2.24-1.21,2.98-1.34,12.74-2.13,27.1,15.29,15.23,25.78,1.67-3.13-1.48-7.55-4.11-4.58ZM256.99,374.27c-8.05,3.07-15.91,6.69-24.05,9.52-5.11,1.78-10.68,4.1-16.08,4.3l5.52-4.78c4.77-5.98,5.6-13.76,1.76-20.47-3.51-6.12-9.41-9.6-15.9-11.91.78-.55,2.07-2.65,3.02-2.56.32.03,5.25,2.33,5.93,2.71,6.39,3.55,12.94,10.71,16.54,17.03,1.25,2.19,4.15,10.23,6.02,10.78,1.76.53,8.76-2.31,9.94-3.76,3.42-4.17-1.13-11.27-1.9-15.8,5.4,4.53,7.35,13.3,16.07,11.51l-6.87,3.43ZM285.93,356.93l-1.21-8.15c3.63,3.22,9.01,5.91,1.21,8.15ZM272.32,217.43c8.03-3.66,27.35-9.21,26.08,5.92-.13,1.59-2.57,8.38-4.06,8.4-9.26-3.8-18.06-9.34-28.08-11.04l6.06-3.28ZM345.88,302.97c-1.05,11.27-22.53,28.55-31.7,34.49-.89.57-7.76,4.97-8.11,4.6-.51-5.99-2.49-11.76-5.76-16.78.75-.71,9.18,6.76,10.91,7.09,3.56.7,6.51-4.71,8.51-7.1,1.18-1.42,3.48-2.68,3.65-4.55.38-4.26-8.03-12.61-10.12-16.55.48-.37,4.83,1.99,7.34.51.35-.21,2.73-4.78,2.91-5.41.56-1.99-1.56-5.48-2.66-7.24-4-6.41-11.38-12.74-17.66-16.88,6.6-.48,9.8.88,9.1-7.18-.78-9.19-5.63-7.24-12.55-8.55-21.99-4.18-41.41-15.01-57.93-29.83.02-.92,10.73-5.45,12.23-5.55,6.8-.44,17.27,3.09,23.58,5.71,19.19,7.97,32.49,15.63,46.44,31.25,7.12,7.97,22.8,31.42,21.82,41.97ZM360.27,291.95c-.95.87-8.85,7.72-9.6,6.94-1.36-9.05-6.62-16.86-10.55-24.93,6.07-2.15,12.46-5.25,18.95-5.75,2.32-.18,9.45-.3,11.13,1.08.92.76,2.45,4.68,2.5,5.93.21,4.43-9.11,13.68-12.43,16.73Z" fill="#624f3c"/><path d="M123.34,46.63c3.3.06,5.83-2.03,9.07-.2,2.21,1.25,3.63,5.22,3.42,7.63-.44,4.99-13.45,6.91-13.84,9.18-.03.2.33,1.56.39,1.61.79.61,9.99-5.53,12.95-4.08,1.74.85,1.48,3.54.14,4.59-.85.66-7.72,3.44-9.27,4.03-3.25,1.24-6.07,3.11-8.23-.85-1.4-2.56-2.62-6.89-.41-9.23s12.06-5.44,12.43-6.03c.29-.47.11-1.78-.39-2.14-.7-.49-7.29,1.55-8.65,1.96-2.19.66-8.97,4.52-9.61.95-.79-4.39,5.92-3.91,6.99-5.48.81-1.19-.4-3.42-.26-4.82l-20.02,7.09c-2.82.73-4.21-1.09-3.24-3.74l33.59-13.46c3.37.71,3.52,3.68.66,5.51-3.97,2.55-7.52.54-5.71,7.48Z" fill="#62503f"/><path d="M123.76,26.78c-.18-2-2.36-12.95-3.5-13.76-2.04-1.46-4.02-.32-4.16,2.18-.2,3.82,2.61,5.44-3.31,6.01-.71-2.41-1.42-12.17-3.69-12.86-3.75-1.14-3.21,2.24-2.97,4.88.24,2.49,1.89,6.63,1.84,8.74-.03,1.43-6.18,2.77-7.62,3.05-.55-2.37-1.74-4.71-2.32-7.05-.43-1.77.57-4.82-2.26-4.97-4.27-.21-2.48,5.72-1.92,8.2.69,3.1,4.54,15.72,6.7,17.28,1.32.96,2.56,1.02,4.1.75,2.62-.48,13.47-4.1,15.82-5.31,3.28-1.7,3.6-3.68,3.29-7.14ZM109.37,32.18c-.17.27-5.87,2.13-6.13,1.94l-1.29-4.3,7-1.9c-.2,1.08.94,3.46.42,4.26ZM113.75,30.32c.17-.86-.27-3.9.05-4.27.14-.17,3.57-.72,4.26-1.01,1.65,4.05-.59,5.11-4.31,5.28Z" fill="#624f3e"/><path d="M237.97,33.19h-13.19c-2.13,0-3.61-3.45-1.68-4.56.38-.22,4.18-.68,5.02-.73,3.25-.22,6.76.18,10.04.05l.78-3.87c-.87,0-1.76-.07-2.63,0-3.02.25-8.44,1.9-10.97,1.75-2.29-.14-3.05-2.16-1.78-3.95s13.14-2.59,15.89-3.29c.98-.67-.25-7.98,3.56-7.99,4.16,0,1.46,7.72,1.2,10.36-.6,6.15-.44,13.67-1.56,19.55-.36,1.88-1.7,3.42-3.71,2.52-3.02-1.35-.38-7.22-.98-9.84Z" fill="#624f3c"/><path d="M199.12,35.59l7.45,2.87c2.26,1.49,1.26,5.25-1.37,5.17-1.49-.04-6.76-3.51-7.03-3.24.5,5.05-6.23,7.43-5.71,1.26.55-6.52,3.14-13.93,4.26-20.44-2.36-.57-10.36,2.31-9.97-2.09.26-2.98,8.88-3.48,11.18-3.2,8.15.98.85,14.63,1.19,19.67Z" fill="#63503f"/><path d="M149.78,45.6c.64.4,11.14-2.67,12.78-3.17,2.38-.73,8.06-4.44,8.75-.35.45,2.7-1.67,3.53-3.72,4.42-3.12,1.36-12.01,3.85-15.36,4.31-4.14.56-5.84.09-7.54-3.72-1.11-2.49-5.36-17.28-4.96-19.3.36-1.84,1.91-2.79,3.65-1.93,1.41.7,2.19,6.4,2.75,8.28,1.13,3.83,2.21,7.73,3.66,11.45Z" fill="#63503f"/><path d="M217.43,33.12c.65,1.06,7.94,2.62,8.12,5.59.38,6.38-8.53-.8-9.16-.24-.59,2.02-.17,4.79-1.44,6.48-2.03,2.7-5.32.59-4.81-2.38l2.89-18.01c-2.55.12-5.11,4.53-7.41,1.89-3.26-3.73,7.43-8.35,10.32-7.44,5.45,1.71.04,11.75,1.5,14.11Z" fill="#62503f"/><path d="M9.53,62.53c1.07-.33,2.18-.08,2.78.89,2.84,6.39,6.16,12.76,10.62,18.18,1.09.19,11.16-7.28,13.44-7.51,2.95-.29,3.73,2.79,1.63,4.92-1.21,1.23-12.24,7.43-14.06,8-1.31.41-2.25.66-3.59.02-1.95-.92-10.68-16.68-11.7-19.46-.56-1.54-1.36-4.35.9-5.04Z" fill="#624f3e"/><path d="M175.62,27.92c.7.7,7.71-4.02,8.19.23.41,3.65-4.05,3.76-6.7,4.61-.89,1.04,2.37,11.07,2.36,13.16-.02,3.49-4.28,4.59-5.55.25s-4.62-21.89-4.58-26.17c.02-1.89.69-2.78,2.69-2.68,3.22.17,2.9,8.11,3.6,10.6Z" fill="#63503f"/><path d="M39.43,56.68c1.12.8,9.82-5.94,10.94-2.56.3.89.24,2.57-.41,3.3-.77.88-6.67,3.38-8.16,4.08-.44.59,4.17,8.1,4.3,9.89.22,2.97-3.15,3.8-4.81,1.76-2.93-3.59-5.22-13.37-7.56-17.77-.31-2.31,1.11-3.6,3.42-2.9,1.74.53,1.98,4,2.27,4.21Z" fill="#63503f"/><path d="M275.23.19c2.32-.71,3.72.61,3.42,2.9-3.13,6.37-3.6,16.92-6.39,22.91-1.63,3.52-5.42,2.61-4.93-2.03.45-4.21,4.38-17.15,6.11-21.25.39-.92.7-2.2,1.79-2.53Z" fill="#63503f"/><path d="M59.44,61.58c5.38-1.03,6.51,7.15,2.18,8.44-6.64,1.98-8.24-7.28-2.18-8.44Z" fill="#63503f"/><path d="M264.71,37.6c5.94-.87,6.86,8.28.34,8.57-5.43.25-5.68-7.79-.34-8.57Z" fill="#63503f"/><path d="M73.35,55.35c4.28-.83,5.71,6.43,2.18,7.48-5.45,1.61-7.83-6.38-2.18-7.48Z" fill="#63503f"/><path d="M203.56,331.61c-3.65-.32-8.2,5-9.19-.87-3.07-18.01-9.69-26.89-24.36-37.51-2.98-2.16-12.88-7.46-14.27-9.71-1.01-1.62-1.53-8.32-2.32-11.11-1.77-6.25-4.97-11.36-9.22-16.2-.94,6.48.66,19-2.71,24.63-1.79,2.99-8.85,3.49-12.13,3.69-10.81.64-22.66-.14-33.62-.04-7.36.06-15.11,1.15-22.54.51-6.61-.57-7.01-3.34-7.43-9.35-.52-7.4,1.15-14.88,1.45-22.09.03-.72.33-1.38-.71-1.18-5.52,6.54-9.82,13.73-12.72,21.81-.87,2.43-1.47,7.08-2.65,8.86-.75,1.14-6.22,4.53-7.9,6.01-4.15,3.64-9.07,9.59-12.18,14.19-1.04,1.54-2.39,5.12-3.14,5.99-.5.59-1.41.62-1.46.68-.13.18-.85,3.67-.96,4.32-2.5,14.97,2.58,25.48,6.24,39.33,3.24.39,10.59,1.6,12.95,3.84-2.51-17.19,17.89-27.35,28.77-12.71,9.4,12.63-3.36,30.99-18.7,24.7.15,4.68,2.09,9.54-.48,13.9,11.98,4.17,24.6,4.79,37.15,5.3,19.83.8,39.11-.15,58.77-2.9-1.84-6.43-.57-12.3.48-18.7-9.88,9.01-26.02,2-26.88-11.25-.53-8.25,5.19-16.66,13.74-17.48,2.16-.21,8.24,1.11,10.11,2.26,4.71,2.87,7.62,8.06,7.82,13.52l7.36-5.84c7.73-4.56,20.81-4.61,28.95-.97,1.22.55,3.2,2.29,3.98,2.49,2.47.63,2.28-.83,2.99-1.1,1.61-.6,3.49-.59,5.03-1.19,7.21-2.81,6.93-15.19-.22-15.83ZM75.08,323.8c-.73.19-1.29.03-1.9-.41-.25-.19-3.28-5-3.36-5.3-.49-1.75,1.19-2.62,2.58-1.83.38.22,4.71,7,2.68,7.54ZM117.35,319.52c-1.18,1.07-2.76.58-2.64-1.16.05-.74,3.15-6.29,3.66-6.46,4.44-1.46-.06,6.75-1.02,7.62Z" fill="#fdfdfd"/><path d="M306.07,342.06c-.51-5.99-2.49-11.75-5.76-16.78.74-.71,9.18,6.76,10.91,7.1,3.56.69,6.51-4.72,8.5-7.11,1.18-1.41,3.48-2.67,3.65-4.54.39-4.27-8.03-12.61-10.11-16.55.48-.37,4.83,1.99,7.34.5.35-.2,2.73-4.78,2.91-5.4.57-2-1.55-5.48-2.66-7.25-4-6.41-11.38-12.73-17.66-16.87,6.6-.48,9.79.87,9.1-7.18-.79-9.19-5.64-7.24-12.55-8.55-22-4.18-41.41-15.01-57.93-29.82.02-.92,10.73-5.45,12.23-5.55,6.8-.44,17.27,3.08,23.58,5.71,19.19,7.98,32.49,15.64,46.44,31.25,7.12,7.97,22.8,31.42,21.82,41.97-1.05,11.27-22.53,28.54-31.7,34.49-.89.57-7.75,4.97-8.11,4.6Z" fill="#fcfcfc"/><path d="M31.53,372.77c.85-.19,3.03,3.89,3.8,4.79,9.77,11.4,30.71,15.03,45.09,15.82,4.65.25,12.63-.78,16.7.56,1.9.63.55,5.61-.43,7.08-5.39,8.1-27.5,9.74-36.41,9.14-14.44-.97-38.77-10.59-34.56-28.8.48-2.06,3.88-8.16,5.81-8.59Z" fill="#fcfcfc"/><path d="M195.76,349.73c-1.38,4.28-1.96,8.59-3.75,12.8-3.22,7.57-9.76,12.34-16.73,16.37-8.54,4.94-15.54,5.47-25.09,6.81-1.83-6.43-.56-12.3.48-18.7,3.77-3.44,4.98-7.96,4.8-12.95l7.35-5.84c7.74-4.56,20.82-4.62,28.95-.97,1.23.55,3.2,2.29,3.98,2.49Z" fill="#fdc4b9"/><path d="M104.16,205.85c1.83.47,9.13,1.51,9.13-1.2,0-1.99-3.79-.61-5.48-.77-.94-.08-3.74-.59-3.7-1.63l2.44-43.41c2.67.35,4.71-.29,7.19-.96l6.69,30.01c-.93,3.79-7.17,2.59-6.68,6.44,3.1.57,5.03-1.54,7.67-2.4.73,6.43,2.78,12.7,3.7,19.08.27,1.88,1.3,7.2.15,8.5-1.99,2.22-12.33,4-15.27,3.26-1.42-.36-5.84-2.78-5.84-4.23v-12.71Z" fill="#fa654e"/><path d="M370.21,269.29c.92.75,2.44,4.68,2.5,5.93.2,4.43-9.12,13.67-12.43,16.72-.95.87-8.85,7.72-9.6,6.95-1.36-9.05-6.62-16.86-10.55-24.93,6.07-2.16,12.46-5.25,18.95-5.76,2.32-.18,9.45-.29,11.13,1.09Z" fill="#fcfbfb"/><path d="M263.86,370.84l-6.87,3.44c-8.05,3.06-15.91,6.69-24.05,9.52-5.1,1.77-10.67,4.09-16.07,4.3l5.52-4.79c4.77-5.98,5.59-13.76,1.75-20.47-3.51-6.12-9.41-9.6-15.9-11.91.78-.55,2.07-2.65,3.02-2.56.32.03,5.25,2.34,5.93,2.71,6.39,3.55,12.94,10.7,16.54,17.03,1.25,2.19,4.15,10.22,6.02,10.78,1.77.53,8.76-2.31,9.95-3.76,3.42-4.17-1.13-11.27-1.9-15.8,5.39,4.52,7.35,13.3,16.07,11.51Z" fill="#f8f7f6"/><path d="M44.69,357.4c.92.87,1.3,3.22,2,4.47,1.73,3.07,4.75,6.16,8.07,7.52.15,4.69,2.09,9.55-.48,13.91-17.97-6.24-18.16-13.11-22.54-29.74,3.24.39,10.6,1.6,12.95,3.84Z" fill="#fcc3b8"/><path d="M266.27,220.71l6.06-3.28c8.03-3.66,27.35-9.21,26.08,5.92-.13,1.59-2.58,8.37-4.06,8.4-9.26-3.8-18.06-9.34-28.08-11.04Z" fill="#fbfafa"/><path d="M112.31,148.3l.95,6.69c-8.59,3.86-5.61-.46-5.74-6.68,1.74.76,3.04.09,4.79,0Z" fill="#fa654e"/><path d="M110.39,132.95l1.44,12.95h-3.84c.49-3.75.53-8.16,1.43-11.78.2-.81-.48-1.4.97-1.17Z" fill="#fa654e"/><path d="M285.93,356.92l-1.21-8.14c3.63,3.21,9.01,5.91,1.21,8.14Z" fill="#efedec"/><path d="M201.87,355.6c12.74-2.14,27.1,15.28,15.23,25.77,1.67-3.12-1.48-7.55-4.1-4.58-1.43,1.63-2.97,10.18-4.55,13.19-8.65,16.45-42.02,20.27-58.5,19.71-7.38-.25-23.31-.91-27.97-7.52-1.88-2.66-2-6.74.86-8.59,11.52-.45,22.93-1.94,34.32-3.56,1.21-.17,2.55.16,3.79-.04,12.57-2.01,30.36-13.08,35.37-25.05.77-1.85,1.87-6.94,2.57-7.99.4-.6,2.24-1.21,2.98-1.34Z" fill="#fcfcfc"/><path d="M67.47,251.41c.31.16.31.32,0,.48v-.48Z" fill="#fdfdfd"/><path d="M155.47,354.05c-.2-5.46-3.11-10.65-7.82-13.52-1.87-1.15-7.95-2.47-10.11-2.26-8.55.82-14.27,9.23-13.74,17.48.86,13.25,17,20.26,26.88,11.25,3.77-3.45,4.98-7.97,4.79-12.95ZM133.65,363.64c-7.44-5.55-5.25-19.05,3.97-20.06,4.24-.46,9.33,1.79,11.4,5.65,5.6,10.42-5.68,21.63-15.37,14.41Z" fill="#624f3e"/><path d="M73.46,344.7c-10.88-14.64-31.28-4.48-28.77,12.71.92.87,1.29,3.22,2,4.47,1.73,3.07,4.75,6.16,8.07,7.52,15.34,6.29,28.1-12.07,18.7-24.7ZM64.69,364.71c-14.5,5.52-21.1-19.01-6.22-21.58,12.77-2.2,18.09,17.06,6.22,21.58Z" fill="#624f3e"/><path d="M118.38,311.9c4.43-1.45-.06,6.75-1.02,7.62-1.18,1.07-2.76.58-2.65-1.16.05-.74,3.15-6.29,3.67-6.46Z" fill="#63503f"/><path d="M72.41,316.26c.37.21,4.7,7,2.68,7.53-.74.2-1.29.04-1.9-.41-.25-.19-3.28-4.99-3.36-5.3-.49-1.75,1.18-2.62,2.58-1.83Z" fill="#63503f"/><path d="M137.62,343.58c4.24-.47,9.34,1.79,11.41,5.65,5.6,10.42-5.68,21.64-15.37,14.41-7.44-5.55-5.25-19.04,3.96-20.06Z" fill="#fcfbfb"/><path d="M58.47,343.13c12.77-2.21,18.09,17.06,6.23,21.57-14.51,5.52-21.11-19-6.23-21.57Z" fill="#fcfbfb"/></g></svg>