<?xml version="1.0" encoding="UTF-8"?><svg id="Layer_2" xmlns="http://www.w3.org/2000/svg" viewBox="0 0 360.68 384.59"><g id="Layer_1-2"><path d="M313.41,253.16c-2.49-9.61-2.01-18.13-2.05-27.92-1.39-5.5-1.04-11.4-.98-17.06.01-1.05.5-1.1.5-1.17.01-1.91-.01-3.84,0-5.75l-2.4-22.06c-12.89-72.4-66.81-127.16-144.45-112.08-2.28.45-11.55,3.37-12.78,2.64-.07-.04-.54-1.19-.56-1.35-.85.05-4.13.79-4.32,1.44-.13.46.14,1.31-.1,2.04-.61,1.84-2.35,1.55-3.59,2.18-13.14,6.67-26.25,11.49-37.56,21.43-13.87,12.19-25.26,33.89-29.86,51.67-7.38,28.52,8.93,59.02,4.3,87.75-.29,1.81-2.73,9.64-2.63,10.15.27,1.33,4.08,3.73,3.26,6.06l5.24-11.77c9.97-4.41-.7,11.54.04,12.25,3.56.05,5.89,1.5,8.15,4.08.81.92.58,2.45,1.91,2.16-.7-2.38-2.91-16.17,2.89-12.71,1.7,1.01.38,3.45.46,4.77.05.81,1.26,7.57,1.52,7.88.18.22,3.18.51,3.75,1.28l2.89,3.57c.65-2.71,4.37-3.26,6.68-3.87-.07-2.3-2.5-10.67.36-11.41,2.62-.68,1.21,3.35,1.3,4.42.15,1.92,1.07,3.68,1.26,5.59,1.32-.4,9.71-3.92,10-4.38.62-.98-1.5-5.13.33-5.68,1.75-.53,2.49,2.1,2.14,3.35.5.54,3.84-1.87,4.78-2.18.92-.3,2.42-.05,2.81-.29.45-.27.87-1.91-.23-2.26-1.32-.41-6.03-.34-8.01-.62-15.14-2.11-26.6-3.62-36.77-15.98-7.35-8.94-6.31-16.34-7.72-26.81-1.81-13.46-6.82-29.46-2.22-42.63.95-2.71,1.58-6.01,5.15-5.15.01-.09.89-1.39.96-1.44-2.7-1.64-1.86-3.23-.25-5.29,2.08-2.65,7.65-7.87,10.46-9.69,2.36-1.53,10.27-4.28,11.13-5.17.86-.89,2.23-5.9,3.04-7.51,2.64-5.3,7.5-11.56,12.32-15.02,2.46-1.76,7.49-4.33,6.94,1.15-.12,1.2-3.53,6.95-4.32,9.15-.41,1.16-2.51,7.31-1.91,7.92,15.03-1.51,30.14-.04,44.81,3.29,2.63-2.37,3.04-15.32,5.89-16.16,3.42-1.02,4.06,2.4,4.7,4.71,1.31,4.73,2.07,10.03,1.88,14.89,22.67,5.98,41.05,22.91,47.52,45.57.74.83,3.53-.41,4.79-.4,15.1.07,13.67,27.15,2.52,33.11l-4.68,2.27c10.6.66,21.09,2.04,29.26,9.35,3.95,3.53,6.47,8.06,8.88,12.71,5.76,11.09,12.21,22.35,11.77,35.26-1.66,9.66,2.5,6.1,3.28-.53.47-4.11.65-13.93.41-18.06-.55-9.49-10.91-26.31-10.91-37.05v-8.39h2.4c.34,11.9,4.22,25.08,8.75,36.09,2.45,5.95,8.03,14.8,8.03,21.22v7.92c3.76.96,4.04-2.75,4.65-5.66,1.26-5.96,1.24-12.51.62-18.56-.29-2.88-2.4-10.89-1.81-12.86.55-1.86,3.9-1.8,4.63-.03,2.12,5.78,3.53,12.23,6.21,17.77.6,1.24,3.39,6.18,4.17,6.87.83.73,2.8.32,3.05-.77.12-.53-2.32-6.87-2.68-8.24ZM291.8,210.74c-.86-.89-3.41-20.95-4.18-24.35-.48-2.15-1.02-4.39-1.67-6.49-.6-1.95-4.21-7.28-.72-7.91,2.69-.49,3.22,1.57,4.15,3.53,4.61,9.7,4.8,22.69,7.09,33.15-.03,2.28-3.12,3.65-4.67,2.07Z" fill="#fddc6f"/><path d="M317.81,249.23c-2.34-10.78-.87-23.65-1.16-34.8-.96-37.2-5.82-62.41-24.87-94.55-28.04-47.27-77.76-70.59-132.28-56.81-2.85.72-9.16,1.74-8.81,5.34.02.16.49,1.31.56,1.35,1.23.73,10.5-2.19,12.78-2.64,77.64-15.08,131.56,39.68,144.45,112.08,1.33,7.45,2.43,14.41,2.4,22.06-.01,1.91.01,3.84,0,5.75.88,5.96.45,12.18.48,18.23.04,9.79-.44,18.31,2.05,27.92.36,1.37,2.8,7.71,2.68,8.24-.25,1.09-2.22,1.5-3.05.77-.78-.69-3.57-5.63-4.17-6.87-2.68-5.54-4.09-11.99-6.21-17.77-.73-1.77-4.08-1.83-4.63.03-.59,1.97,1.52,9.98,1.81,12.86.62,6.05.64,12.6-.62,18.56-.61,2.91-.89,6.62-4.65,5.66v-7.92c0-6.42-5.58-15.27-8.03-21.22-4.53-11.01-8.41-24.19-8.75-36.09h-2.4v8.39c0,10.74,10.36,27.56,10.91,37.05.24,4.13.06,13.95-.41,18.06-.78,6.63-4.94,10.19-3.28.53.44-12.91-6.01-24.17-11.77-35.26-2.41-4.65-4.93-9.18-8.88-12.71-8.17-7.31-18.66-8.69-29.26-9.35l4.68-2.27c11.15-5.96,12.58-33.04-2.52-33.11-1.26-.01-4.05,1.23-4.79.4-6.47-22.66-24.85-39.59-47.52-45.57.19-4.86-.57-10.16-1.88-14.89-.64-2.31-1.28-5.73-4.7-4.71-2.85.84-3.26,13.79-5.89,16.16-14.67-3.33-29.78-4.8-44.81-3.29-.6-.61,1.5-6.76,1.91-7.92.79-2.2,4.2-7.95,4.32-9.15.55-5.48-4.48-2.91-6.94-1.15-4.82,3.46-9.68,9.72-12.32,15.02-.81,1.61-2.18,6.62-3.04,7.51-.86.89-8.77,3.64-11.13,5.17-2.81,1.82-8.38,7.04-10.46,9.69-1.61,2.06-2.45,3.65.25,5.29.17-.11,1.05.07,1.69-.45,4.04-3.33,6.52-7.4,11.3-10.3,2.62-1.6,11.12-4.44,12.29-5.7,1.13-1.23,2.19-5.43,3.09-7.22,1.45-2.92,3.2-5.6,4.73-8.46.92-.12.25.87.15,1.34-.57,2.68-2.9,9.64-.9,11.63,2.1,2.1,6.04-.24,8.66-.5,6.52-.64,17.36-.27,23.92.53,3.83.47,17.48,4.1,19.95,3.05.57-.24,1.18-1.23,1.66-1.7l2.66-5.72c1.38,3.05-1.28,7.09,1.19,9.61,1.5,1.53,12.74,4.62,15.93,6.13,11.64,5.52,23.37,17.79,28.34,29.69.5,1.22,2.93,7.76,2.98,8.56.11,1.45-3.8,6.16.36,6.83,2.25.36,2.39-2.01,3.8-3.2,3.16-2.66,7.78-2.19,9.86,1.51,3.79,6.76.25,19.18-7.29,21.69-4.15,1.38-3.92-.66-6.24,4.07-2.63,5.36-5.18,10.04-9.13,14.61-1.27,1.47-6.75,7.06-8.14,7.68-2.23.99-7.17.07-9.82.26-4.73.33-10.4,1.16-15.12,1.91-2.86.45-5.71.73-8.39,1.91-1.46.65-5.73,4.25-6.15,4.25-1.06-.1-3.44-2.01-5.4-2.28-1.24-.18-2.98-.15-4.22.01-1.45.18-4.28,1.69-5.09,1.16-.4-.26-.61-1.23-1.25-1.65-1.83-1.18-13.55-1.15-16.73-1.49-8.3-.88-23.19-2.7-30.46-6.23-7.23-3.51-13.77-11.85-15.59-19.66-1.1-4.68-.63-8.62-1.2-12.95-1.56-11.89-5.68-24.04-4.26-36.16.31-2.66,2.89-7.44,2.87-9.18-.02-1.07-1.03-1.93-1.01-2.14-3.57-.86-4.2,2.44-5.15,5.15-4.6,13.17.41,29.17,2.22,42.63,1.41,10.47.37,17.87,7.72,26.81,10.17,12.36,21.63,13.87,36.77,15.98,1.98.28,6.69.21,8.01.62,1.1.35.68,1.99.23,2.26-.39.24-1.89-.01-2.81.29-.94.31-4.28,2.72-4.78,2.18.35-1.25-.39-3.88-2.14-3.35-1.83.55.29,4.7-.33,5.68-.29.46-8.68,3.98-10,4.38-.19-1.91-1.11-3.67-1.26-5.59-.09-1.07,1.32-5.1-1.3-4.42-2.86.74-.43,9.11-.36,11.41-2.31.61-6.03,1.16-6.68,3.87l-2.89-3.57c-.57-.77-3.57-1.06-3.75-1.28-.26-.31-1.47-7.07-1.52-7.88-.08-1.32,1.24-3.76-.46-4.77-5.8-3.46-3.59,10.33-2.89,12.71-1.33.29-1.1-1.24-1.91-2.16-2.26-2.58-4.59-4.03-8.15-4.08-.74-.71,9.93-16.66-.04-12.25l-5.24,11.77c.82-2.33-2.99-4.73-3.26-6.06-.1-.51,2.34-8.34,2.63-10.15,4.63-28.73-11.68-59.23-4.3-87.75,4.6-17.78,15.99-39.48,29.86-51.67,11.31-9.94,24.42-14.76,37.56-21.43,1.24-.63,2.98-.34,3.59-2.18.24-.73-.03-1.58.1-2.04-1.36-.22-2.4-1.39-3.85-.77-13.61,6.06-27.76,11.5-39.32,21.14-15.52,12.96-27.86,35.86-32.95,55.3-5.78,22.13,1.68,44.57,4.13,66.59,1.11,10.05,1.48,19.73-1.88,29.43-8.08-2.59-16.77-1.5-24.93.24-7.93,1.69-16.38,4.63-22.54,10.07-2.21,1.95-5.77,6.45-5.61,9.52.09,1.86,1.77,6.13,2.21,8.28,2.01,9.81,3.46,29.69,10.59,36.41,12.91,12.15,33.47,8.65,46.27-1.71,1.35-1.09,5.13-5.26,5.55-5.52.33-.2,5.37-.63,7.51-1.57,2.38-1.04,6.75-5.14,7.18-5.28,1.91-.64,3.79.28,6.47-1.2,2.59-1.42,3.27-4.11,4.53-5.07.7-.54,8.95-3.26,9.3-2.92-4.46,11.23-8.25,22.74-11.37,34.43-3.61,13.54-6.88,27.38-9.83,41-.91,4.2-8.22,11.98-7.95,14.86.49,5.25,8.47,6.35,12.62,6.58,12.11.68,21.02-4.91,25.96-15.86,10.15,1.24,20.12,3.82,30.22,5.24,9.03,1.26,18.16,1.77,27.28,2.02l17.97-1.46v8.87c0,1.11,2.12,3.86,3.11,4.56,4.57,3.23,16.84.88,21.5-2.01,7.79-4.82,7.33-14.34,7.75-22.46,5.57-2.96,21.38-12.53,22.3-18.97.35-2.47-1.83-7.49-.71-9.33.36-.59,10.02-5.75,11.91-7.27,4.54-3.65,9.43-13.13,9.43-18.86v-8.87c2.03,2.59,5.27,4.92,7.11,7.52,1.6,2.24,3.99,12.72,7.55,8.81,2.23-2.46-2.23-10.38-4.12-12.72-2.5-3.12-7.53-6.02-7.53-10.66,0-1.09,1.32-2.51.83-3.98,4.4.67,6.02-1.83,6.72-5.76,1.26.98,2.33,1.93,4.07,1.93.89-.01,4.32-.4,5.18-.59,5.15-1.14,6.03-14.82,6.58-19.08,3.15,3.92,4.26,8.35,10.45,6.86,9.82-2.36,3.1-12.18,1.75-18.36ZM31.79,253.34c8.17-5.37,29.01-10.71,38.11-7.02,3.38,1.38,6.37,5.49,5.01,9.13-7.71-4.75-16.73-4.73-25.3-2.52-6.3,1.62-13.86,4.63-18.08,9.74-1.23,1.48-.54,3.29-3.86.94-5.44-3.86.72-8.04,4.12-10.27ZM78.05,298.15c-9.28,9.23-24.38,13.16-36.55,7.75-7.83-3.49-9.29-8.55-10.97-16.38-1.42-6.62-1.99-13.55-3.57-20.16,2.62.2,4.92,1.34,7.56,1.79,6.2,1.04,13.24.5,19.45-.43,8.13-1.22,16.06-3.98,22.62-9.03.53.33.57.67.7,1.22,1.15,4.92,1.65,10.19,2.56,15.18,1.44,7.93,4.98,13.31-1.8,20.06ZM83.79,269.35c-.85.01-1.97-7.11-1.68-8.14,6.11.6,3.88,4.49,1.68,8.14ZM83.12,257.19c.91-2.74,8.57.93,7.12,3.03-.09.12-2.62,1.06-2.79.93-.15-.1-.26-.93-1.14-1.5-1.74-1.12-3.96-.14-3.19-2.46ZM86.43,293.82l.48-5.28c.52-.52,5.56,1.68,5.75,1.93.99,1.3-5.41,3.31-6.23,3.35ZM104.11,284.88c-.81,2.92-8.43,1.63-10.63.69-7.17-3.09-6.08-20.76,1.56-22.7,1.35-.34,5.7-.55,6.62.37,3.56,3.58-5.6,6.38-1.58,9.97,1.55,1.39,5.38.79,2.86,3.8-1.19,1.42-3.51,1.08-3.1,4.08.38,2.71,4.91,1.46,4.27,3.79ZM209.47,247.27c2.33,2.01,7.24,8.17,9.31,10.83,1.49,1.92,9.15,12.84,9.12,14.39-.64,1.28-6.05,6.96-6.95,6.96-1.74-1.05-2.9-3.08-4.55-4.58-2.34-2.13-6.46-6.32-9.59-5.03.57-5.13,1.82-10.87,1.37-16-.19-2.2-1.28-4.79-1.38-6.78-.1-1.77,2.12-.26,2.67.21ZM219.98,287.57c3.44-2.68,7.01-7.47,10.08-9.58.4-.28.47-.67,1.2-.47,2.44,5.85,4.06,6.1.68,11.95-9.48,16.45-27.02,20.76-45.03,19.21-11.01-.94-20.4-6.78-21.82-18.48-.08-.65-.03-.92.7-.69.95.3,3.14,1.99,4.58,2.62,3.62,1.56,6.59,2.48,10.2,4.18,12.77,6.02,28.87-.52,39.41-8.74ZM203.92,280.62c-.11,1.34-1.65,10.68-2.01,11.18-4.2,1.66-8.78,2.58-13.33,2.5l6.19-3.64c3.64-3.22,7.01-7.08,8.68-11.7.83-.12.51,1.13.47,1.66ZM173.47,248.26c.45-.72,4.06-2.75,5.05-3.11,2.66-.95,5.85-1.11,8.62-1.68-2.51,2.42-5.42,4.29-7.39,7.23l-5.07,9.07c-.13-1.64.16-3.42-.01-5.03-.21-1.89-2.01-5.17-1.2-6.48ZM167.24,250.17c5,4.25.93,10.42,2.41,13.91.33.8,8.21,7.44,9.2,7.6,1.92.32,2.83-1.15,2.45-2.93-.42-1.9-2.7-2-2.77-3.44-.05-1.03,2.57-7.47,3.25-8.75,2.19-4.12,9.02-11.03,13.81-11.51,8.92-.89,8,11.14,7.32,16.82-1.36,11.35-7.09,28.58-21.26,28.12-10.11-.32-33.37-15.15-34.27-26.21-.66-8,11.91-20.38,19.86-13.61ZM109.92,280.64c-4.35,1.19-.95-3.29-.95-5.28.01-2.95-2.61-4.44-2.79-5.34-.16-.81,1.65-4.37.87-5.93.64.23.91.81,1.69.95,2.24.42,12.32-3.95,14.94-5.19,2.86-1.35,5.36-3.26,8.3-4.39l-10.04,20.88-12.02,4.3ZM95.55,373.42c-.79-.94,3.28-6.38,4-7.72.88-1.63,2.98-7.54,4.47-8,4.07-1.25,14.42,3.88,18.85,4.71-3.67,11.5-16.76,13.87-27.32,11.01ZM222.37,378.21c-2.52.78-11.68,2.59-13.2.18-1.14-1.8-.12-7.81-.4-10.18,7.81-1.26,15.14-4.02,22.49-6.76-.95,7.35-.59,14.16-8.89,16.76ZM246.09,346.3c-33.13,26.04-81.48,20.89-119.96,11.65-7.33-1.77-14.27-5.43-21.96-5.62,5.78-20.11,9.55-40.39,16.91-60.07,4.01-10.72,13.92-35.24,20.78-43.48,2.62-3.14,4.61-1.7,8.35-1.96.73.71-3.97,5.44-4.7,6.57-5.39,8.22-3.91,14.55,1.84,21.95,3.32,4.27,7.77,8.88,12.86,10.88-.19,14.26,8.68,25.38,23.09,26.79-.28,1.88-3.3,2.49-3.76,4.18-.56,2.01,1.34,3.52,3.16,3.86,5.39,1,11.4.32,16.89,1.09.67.64,2.46,15.71,3.12,18.22.52,1.99,1.25,3.72,3.74,3.27,3.41-.62,11.17-15.86,14.53-18.67,3.5,1.58,6.9,3.44,10.44,4.92,2.59,1.08,11.65,5.84,12.19.56.27-2.62-7.93-13.13-8.49-16.72,2.07-3.96,5.54-7.07,7.18-11.27.72-.49,4.01,8.03,4.32,8.87,1.86,5.08,3.42,10.76,4.56,16.06.54,2.45,2.16,8.79,2.08,10.83-.08,1.92-5.52,6.79-7.17,8.09ZM266.23,318.96c-1.31,1.07-9.47,6.4-10.49,5.54-1.18-6.79-3.45-13.28-6.03-19.63-7.72-19.07-18.33-39.54-31.63-55.18-1.24-1.46-6.18-5.97-6.42-7.52-.12-.81,7.12-7.04,8.34-8.29,2.57-2.64,2.99-5.12,7.4-6.03,7.61-1.58,17.28.58,23.28,5.55,8.67,7.21,17.54,34.26,20.63,45.55,3.22,11.78,5.52,31.41-5.08,40.01ZM275.63,275.6c-3.22-10.84-6.86-21.72-11.67-31.98-3.64-7.78-8.04-14.18-16.06-17.99-1.47-.7-6.94-2.79-8.24-2.79h-11.75c.57-2.45,4.45-2.02,6.49-1.94,16.19.69,24.88,6.04,32.12,20.15,4.39,8.55,10.43,19.46,10.81,29.01.06,1.63.69,5.94-1.7,5.54Z" fill="#614e3c"/><path d="M29.99,75.03c.03.14,1.17,1.7,1.24,1.9.93,2.69,3.78,11.98,3.85,14.32.08,2.63-2.31,3.87-4.55,2.6s-1.34-3.44-1.78-5.41c-.67-3.02-2-5.88-2.28-8.99l-16.18,8.99c-3.1.81-5.88-.67-3.75-3.74l17.8-10.53-2.21-8.61c-.89-.64-11.78,4.93-13.75,5.62-2.41.85-9.22,3.49-8.29-1.56.32-1.77,5.44-2.63,7.2-3.37,3.25-1.37,13.05-6.85,15.95-6.38,4.02.65,5.81,9.86,6.78,13.46.19.71-.13,1.28-.02,1.71Z" fill="#62503e"/><path d="M78.92,57.96c-1.35-.12-5.25,3.38-5.92,2.78-.56-3.14-1.58-6.2-2.54-9.22-.37-1.15-1.59-3.23-1.7-4.09-.18-1.51,1.36-2.51,1.26-3.65-.23-2.45-2.73-2.44-4.57-1.85-2.49.79-12.63,5.63-15.02,7.03-1.41.83-2.38,1.38-1.81,3.28.75,2.53,4.93.66,5.16.83.75.56,4.25,12.11,5.72,13.78.28,1.88-2.76,1.89-1.53,4.8,1.3,3.09,6.74-1.34,8.62-2.21,3.11-1.46,12.12-4.66,13.93-6.93,1.33-1.66.52-4.36-1.6-4.55ZM68.6,62.85c-.16.7-3.55,2.5-4.5,1.77-.63-.48-6.13-12.94-6-13.67l6.26-2.69c.18,2.68,4.67,12.77,4.24,14.59Z" fill="#62503e"/><path d="M269.15,12.06c-1.38-1.89-7.96-6.79-10.19-6.4-1.22.22-4.61,1.04-5.75,1.49-4.33,1.71-8.68,10.09-8.95,14.57-.73,11.93,13.21,17.76,22.24,10.71,6.02-4.7,7.12-14.3,2.65-20.37ZM251.79,15.32c1.69-2.77,3.16-4.39,6.68-4.32,1.03.02,5.33,2.83,6.1,3.72,1.27,1.48,2.25,4.94,2.16,6.86-.71,13.87-24.97,10.26-14.94-6.26Z" fill="#62503e"/><path d="M162.7,13.24c.08.08,1.54.04,2.25.38,4.87,2.29.81,10.08,2.49,12.38,1.35,1.85,9.85,4.83,10.11,7.17.19,1.64-1.54,3.11-3.05,2.99s-6.68-4.8-7.51-4.21c-1.31,2.54.66,7.66-1.45,9.34s-4.03.06-4.32-2.38c-.72-6.18,1.01-13.62.97-19.91-.47-.47-8.27,1.77-9.59,2.16-1.93.57-7.31,3.21-8.64,2.41-1.02-.62-1.09-2.46-.61-3.49,1.31-2.75,11.54-4.18,14.31-5.85.54-.78-1.04-8.36-.78-10.36.44-3.31,4.45-3.42,5.2-.83.4,1.38.1,9.68.6,10.19Z" fill="#62503e"/><path d="M237.74,30.53c-1.28,3.23-4.93,2.08-5.08-.72-.08-1.38.88-3.04.52-4.57-4.6.2-8.35,1.17-12.95.48-1.27-1.83-1.29-3.11.82-4.21,1.76-.15,12.92-1.02,13.5-1.61.21-.21,1.04-5.6.97-5.89-.17-.72-.91-.76-1.55-.73-3.66.15-8.86,1.98-12.52,2.87-1.53-.41-2.44-1.77-2.18-3.38,4.43-3.42,11.27-3.72,16.72-4.38.97-1.47.02-6.44,1.81-7.06,1.98-.68,3.72-.04,3.85,2.16.2,3.27-2.74,24.09-3.91,27.04Z" fill="#62503e"/><path d="M310.64,19.97c.66.06,3.65.55,4.07.73,4.49,1.91-2.01,10.77-3.35,13.39.16.74,7.73,4.03,8.99,4.47s3.84-.25,3.4,2.65c-1.09,7.2-14.23-3.31-15.26-2.53-.93,1.69-2.36,7.23-3.85,7.9-1.94.87-4.08.36-4.3-1.95-.38-3.98,8.69-14.88,9.58-19.38-2.34-.06-10.24.18-11.54-1.64-.85-1.19-.25-3.63.75-3.63,3.64,0,7.99-.32,11.51,0Z" fill="#62503e"/><path d="M191.93,20.94c-.15-.15-4.13.34-4.28.5-.51.53.8,5.04-.72,6.71-2.12,2.33-4.75-.81-4.58-3.14l-.39-18.61c6.38-5.91,4.31,6.64,5.19,10.22.29.35,5.18-1.75,5.3-2.23.29-2.9.27-11.77,2.12-13.61,1.65-1.64,4.03-.46,4.14,1.69l-1.5,12.93c-.83,2.87,2.13,9.19-1.4,10.13-3.83,1.01-3.61-4.34-3.86-4.59Z" fill="#62503e"/><path d="M284.02,11.82c2.68-.44,5.83,1.38,8.74,1.56,1.76.72,1.86,2.77.36,3.94-2.27,1.76-7.05-.52-9.58-1.19.21,1.51-.42,3.96.23,5.28,1.1,2.23,8.32.59,6.87,5.41-.95,3.16-7.45-.26-8.06.34-.53,2.04-.14,5.05-1.06,6.85-1.43,2.78-5.01,1.87-5.13-1.37-.16-4.1,2.62-11.19,2.35-15.79-.37-1.97.35-4.03.44-5.8.08-1.63-1.42-4.59,1.8-4.88,2.45-.22,3.39,3.75,3.05,5.66Z" fill="#62503e"/><path d="M38.58,53.18c.84-.84,2.88-.87,3.46.38,1.81,4.45,4.18,8.69,6.1,13.08.99,2.27,4.32,8.95,4.63,10.76.36,2.05-1.26,4.03-3.41,3.39-2.62-.77-3.68-9.03-5.91-10.91-1.71-.4-13.16,9.95-12.71,2.6.19-3.04,8.62-5.22,10.56-7.75-.41-2.72-5.06-9.21-2.72-11.56Z" fill="#62503e"/><path d="M93.62,36.76c3.19-.41,11.17-5.48,13.91-4.09,1.69.86,1.7,4.24-.35,4.94-3.96.49-12.03,5.45-15.61,4.82-4-.7-3.3-9.25-3.78-12.57-.35-2.45-4.33-14.72,1.99-11.58,2.02,1,3.53,15.67,3.83,18.47Z" fill="#62503e"/><path d="M77.15,32.52c.68-.24,1.94-.22,2.56.16,1.29.78,5.16,17.53,5.99,20.38.98,3.37,3.22,7.95,3.89,11.01.72,3.32-2.87,5.94-5.03,2.6-1.02-1.58-2.52-7.54-3.18-9.77-1.47-5.01-5.17-16.87-5.41-21.49-.05-.98.01-2.49,1.18-2.89Z" fill="#62503e"/><path d="M219.04,32.92c-.66,1.35-3.19,1.19-4.1.25-1.97-2.03-.13-17.77-1.42-21.36-2.46-.06-6.57,3.19-8.43,1-3.55-4.16,6.82-6.12,9.64-5.8,3.2.37,3.77,2.93,4.06,5.76.42,4.06.35,8.97.48,12.95.06,1.54.29,6.13-.23,7.2Z" fill="#62503e"/><path d="M205.32,33.69c-.79-2.89-5.07-7.59-8.24-6.92-2.57.54-6.14,4.18-6.54,6.91-2.03,14.01,17.9,11.41,14.78.01ZM197.45,38.24c-2.67-.15-2.79-3.98-1.56-5.2,3.11-3.13,7.92,5.56,1.56,5.2Z" fill="#62503e"/><path d="M332.79,12.87c2.07-.63,3.49.29,3.47,2.48-2.51,8-1.55,18.55-3.94,26.3-1.25,4.05-4.82,4.52-5.59.19,2.69-8.04,1.87-19.01,4.42-26.78.28-.85.71-1.91,1.64-2.2Z" fill="#62503e"/><path d="M99.24,52.66c3.56-.52,3.74,6.98,5.65,9.03.73.16,6.99-5.55,9.15-5.75,2.82-.27,3.85,2.76,1.81,4.74-.88.85-10.07,6.61-11.01,6.74-2.21.32-3.32-.35-4.4-2.26-.52-.91-3.15-8.27-3.27-9.21-.19-1.45.5-3.06,2.06-3.29Z" fill="#62503e"/><path d="M112.2,40.69c3.8-.33,4.11,4.08,1.44,5.29l-20.79,6.1c-2.61.43-4.35-1.69-3.18-4.18.98-2.09,3.58-1.31,5.42-1.77,4.51-1.12,13.37-5.11,17.12-5.44Z" fill="#62503e"/><path d="M344.82,32.05c4.31-.49,5.59,4,7.64,4.61,1.83.54,9.25-1.71,8.1,2.51-1.09,4.01-8.56,3.21-11.48,1.35-1.07-.68-2.77-3.02-3.53-3.21-1.09-.26-3.64,1.51-4.37-.89-.78-2.56,1.31-4.11,3.63-4.37Z" fill="#62503e"/><path d="M239.52,188.93c-2.08-3.7-6.7-4.17-9.86-1.51-1.41,1.19-1.55,3.56-3.8,3.2-4.16-.67-.25-5.38-.36-6.83-.05-.8-2.48-7.34-2.98-8.56-4.97-11.9-16.7-24.17-28.34-29.69-3.19-1.51-14.43-4.6-15.93-6.13-2.47-2.52.19-6.56-1.19-9.61l-2.66,5.72c-.48.47-1.09,1.46-1.66,1.7-2.47,1.05-16.12-2.58-19.95-3.05-6.56-.8-17.4-1.17-23.92-.53-2.62.26-6.56,2.6-8.66.5-2-1.99.33-8.95.9-11.63.1-.47.77-1.46-.15-1.34-1.53,2.86-3.28,5.54-4.73,8.46-.9,1.79-1.96,5.99-3.09,7.22-1.17,1.26-9.67,4.1-12.29,5.7-4.78,2.9-7.26,6.97-11.3,10.3-.64.52-1.52.34-1.69.45-.07.05-.95,1.35-.96,1.44-.02.21.99,1.07,1.01,2.14.02,1.74-2.56,6.52-2.87,9.18-1.42,12.12,2.7,24.27,4.26,36.16h1.44c-2.65-10.35,7.7-18.21,17.22-13.62,9.33,4.49,9.3,20.24-1.39,22.73,2.85,7.73,4.85,16.3-.48,23.5,7.27,3.53,22.16,5.35,30.46,6.23,3.18.34,14.9.31,16.73,1.49.64.42.85,1.39,1.25,1.65.81.53,3.64-.98,5.09-1.16,1.24-.16,2.98-.19,4.22-.01,1.96.27,4.34,2.18,5.4,2.28.42,0,4.69-3.6,6.15-4.25,2.68-1.18,5.53-1.46,8.39-1.91-15.48-13.38-8.79-42.14,12.72-44.12,11.21-1.03,20.3,1.63,26.21,11.66,1.6,2.72,1.94,5.3,3.28,8,2.32-4.73,2.09-2.69,6.24-4.07,7.54-2.51,11.08-14.93,7.29-21.69ZM162.96,215.6c-12.74-1.75-14.2-22.5-.38-24.28,18.71-2.41,19.86,26.97.38,24.28ZM235.12,196.96c-.7.71,2.19,7.12-1.33,8.06-2.07.56-3.44-1.87-3.01-3.76-1.89.38-1.87,2.21-4.2,1.08-3.71-1.79,2.83-8.02,5.05-9.11,1.91-.93,7.53-2.85,7.31,1.03-.16,3-3.56,2.44-3.82,2.7Z" fill="#fdfdfd"/><path d="M291.8,210.74c-.86-.89-3.42-20.95-4.18-24.35-.48-2.15-1.02-4.39-1.67-6.49-.6-1.95-4.22-7.28-.73-7.91,2.69-.49,3.22,1.57,4.15,3.53,4.61,9.7,4.81,22.7,7.09,33.15-.03,2.29-3.13,3.66-4.67,2.07Z" fill="#614e3c"/><path d="M310.88,201.26l-2.4-22.06c1.33,7.45,2.43,14.42,2.4,22.06Z" fill="#fec4b9"/><path d="M311.36,225.24c-1.38-5.5-1.03-11.4-.98-17.06,0-1.05.5-1.1.5-1.16.88,5.95.45,12.18.48,18.22Z" fill="#fec4b9"/><path d="M150.21,246.82c.73.71-3.97,5.44-4.7,6.56-5.38,8.23-3.91,14.56,1.84,21.96,3.32,4.27,7.77,8.88,12.86,10.88-.19,14.26,8.68,25.38,23.1,26.78-.28,1.88-3.3,2.49-3.77,4.18-.55,2.01,1.34,3.52,3.16,3.86,5.39,1,11.4.32,16.89,1.09.67.64,2.46,15.71,3.12,18.22.52,1.99,1.25,3.72,3.74,3.27,3.41-.62,11.17-15.85,14.53-18.66,3.5,1.58,6.89,3.43,10.44,4.91,2.59,1.08,11.65,5.85,12.19.57.27-2.62-7.93-13.13-8.49-16.72,2.07-3.96,5.54-7.07,7.18-11.26.72-.49,4.01,8.03,4.32,8.86,1.86,5.08,3.42,10.76,4.56,16.06.53,2.46,2.16,8.8,2.07,10.84-.08,1.92-5.52,6.79-7.17,8.09-33.14,26.05-81.48,20.9-119.96,11.65-7.33-1.76-14.28-5.43-21.96-5.62,5.77-20.11,9.55-40.39,16.91-60.07,4.01-10.73,13.93-35.25,20.78-43.48,2.62-3.15,4.61-1.7,8.35-1.96Z" fill="#fdfdfd"/><path d="M271.31,278.95c-3.09-11.29-11.96-38.34-20.63-45.55-6-4.97-15.67-7.13-23.28-5.55-4.41.91-4.83,3.39-7.4,6.03-1.22,1.25-8.46,7.48-8.34,8.29.24,1.55,5.18,6.06,6.42,7.52,13.3,15.64,23.91,36.11,31.63,55.18,2.58,6.35,4.85,12.84,6.03,19.63,1.02.86,9.18-4.47,10.49-5.54,10.6-8.6,8.3-28.23,5.08-40.01ZM259.44,300.89c-1.03.96-3.6.94-4.1-.69-.48-1.6.54-7.03.4-9.52-.48-9.07-5.7-29.75-12.23-36.2-2.45-2.43-8.63-4.2-12.03-4.31-2.21-.08-7.91,3.16-6.35-2.05,1.33-4.45,13-1.83,16.2-.57,12.05,4.76,16.69,24.53,18.57,36.1.53,3.25,1.82,15.1-.46,17.24Z" fill="#929c79"/><path d="M26.96,269.37c2.63.19,4.93,1.34,7.56,1.78,6.2,1.04,13.24.5,19.45-.43,8.13-1.22,16.05-3.98,22.61-9.03.53.33.57.67.7,1.22,1.15,4.92,1.66,10.19,2.56,15.18,1.44,7.93,4.98,13.3-1.8,20.06-9.28,9.23-24.38,13.16-36.55,7.74-7.83-3.48-9.28-8.54-10.96-16.38-1.42-6.62-2-13.55-3.58-20.16Z" fill="#fdfdfc"/><path d="M225.99,214.69c-2.63,5.37-5.18,10.04-9.13,14.61-1.27,1.47-6.75,7.06-8.15,7.68-2.23.99-7.17.07-9.82.25-4.72.33-10.4,1.17-15.11,1.91-15.48-13.38-8.79-42.14,12.72-44.12,11.21-1.03,20.3,1.63,26.21,11.66,1.6,2.72,1.94,5.3,3.28,7.99Z" fill="#fec4b9"/><path d="M195.59,245.05c8.91-.89,8,11.14,7.32,16.82-1.36,11.35-7.09,28.57-21.27,28.12-10.11-.33-33.37-15.15-34.27-26.21-.65-8,11.92-20.38,19.87-13.61,4.99,4.25.93,10.42,2.4,13.91.34.8,8.21,7.44,9.21,7.61,1.92.31,2.83-1.16,2.44-2.93-.41-1.9-2.7-2-2.77-3.44-.05-1.03,2.57-7.47,3.25-8.75,2.19-4.12,9.02-11.03,13.82-11.51Z" fill="#fcfcfc"/><path d="M231.26,277.52c2.44,5.85,4.06,6.1.69,11.95-9.49,16.45-27.03,20.76-45.04,19.21-11.01-.94-20.4-6.78-21.82-18.48-.08-.65-.03-.92.7-.69.95.3,3.14,1.99,4.58,2.61,3.62,1.57,6.59,2.49,10.2,4.19,12.77,6.02,28.87-.52,39.41-8.74,3.44-2.68,7.01-7.47,10.08-9.59.4-.28.47-.67,1.2-.47Z" fill="#fbfbfa"/><path d="M90.74,202.22c1.92,7.49,8.56,10.8,15.83,9.11,2.85,7.73,4.85,16.3-.48,23.5-7.23-3.51-13.77-11.85-15.59-19.66-1.09-4.68-.63-8.62-1.19-12.95h1.44Z" fill="#fec4b9"/><path d="M206.81,269.84c.57-5.12,1.82-10.87,1.37-16-.19-2.2-1.28-4.78-1.38-6.78-.09-1.77,2.13-.25,2.67.22,2.33,2,7.24,8.17,9.31,10.83,1.49,1.92,9.15,12.83,9.11,14.39-.63,1.28-6.04,6.95-6.94,6.96-1.75-1.05-2.9-3.08-4.55-4.58-2.34-2.13-6.46-6.32-9.6-5.03Z" fill="#fbfbfa"/><path d="M74.91,255.45c-7.71-4.75-16.73-4.73-25.3-2.52-6.3,1.62-13.86,4.63-18.08,9.74-1.22,1.48-.53,3.29-3.85.94-5.44-3.85.72-8.04,4.12-10.27,8.16-5.37,29-10.71,38.11-7.01,3.39,1.37,6.37,5.49,5.01,9.13Z" fill="#f9f8f8"/><path d="M122.87,362.41c-3.67,11.5-16.76,13.87-27.32,11.01-.79-.94,3.28-6.38,4-7.72.87-1.63,2.97-7.54,4.47-8,4.07-1.25,14.42,3.88,18.85,4.71Z" fill="#fafaf9"/><path d="M131.98,255.46l-10.05,20.88-12.01,4.3c-4.36,1.19-.95-3.28-.95-5.28,0-2.94-2.62-4.43-2.8-5.34-.16-.8,1.65-4.37.87-5.93.64.24.91.81,1.69.96,2.24.41,12.32-3.95,14.94-5.19,2.86-1.35,5.36-3.26,8.31-4.4Z" fill="#fafaf9"/><path d="M231.26,361.45c-.96,7.36-.59,14.16-8.9,16.76-2.51.79-11.68,2.6-13.2.18-1.14-1.8-.11-7.81-.39-10.18,7.81-1.25,15.14-4.02,22.49-6.76Z" fill="#fafaf9"/><path d="M101.66,263.24c3.57,3.58-5.6,6.38-1.58,9.97,1.55,1.39,5.38.79,2.86,3.79-1.19,1.43-3.52,1.08-3.1,4.08.37,2.71,4.91,1.47,4.27,3.79-.81,2.92-8.43,1.64-10.63.69-7.17-3.08-6.08-20.76,1.57-22.7,1.35-.34,5.69-.56,6.61.37Z" fill="#fafaf9"/><path d="M227.91,222.84c.57-2.45,4.45-2.02,6.5-1.94,16.18.68,24.88,6.03,32.12,20.15,4.39,8.55,10.43,19.45,10.8,29.01.06,1.63.69,5.94-1.7,5.54-3.22-10.84-6.86-21.72-11.67-31.98-3.65-7.78-8.04-14.18-16.06-17.99-1.47-.7-6.94-2.79-8.24-2.79h-11.75Z" fill="#8f9976"/><path d="M187.14,243.47c-2.51,2.42-5.42,4.29-7.39,7.23l-5.07,9.07c-.13-1.64.17-3.41-.01-5.03-.21-1.89-2-5.17-1.19-6.48.45-.72,4.06-2.75,5.05-3.11,2.66-.96,5.85-1.12,8.62-1.69Z" fill="#f4f3f2"/><path d="M201.91,291.8c-4.2,1.65-8.79,2.58-13.33,2.49l6.19-3.63c3.64-3.22,7-7.09,8.68-11.71.82-.12.51,1.14.47,1.66-.11,1.34-1.65,10.68-2.01,11.18Z" fill="#f4f3f2"/><path d="M82.11,261.21c6.11.6,3.88,4.49,1.68,8.14-.85.01-1.96-7.12-1.68-8.14Z" fill="#fddc6f"/><path d="M90.24,260.22c-.08.12-2.61,1.06-2.79.93-.15-.1-.26-.94-1.14-1.5-1.74-1.12-3.96-.14-3.19-2.47.91-2.73,8.56.93,7.11,3.04Z" fill="#f4f3f2"/><path d="M92.66,290.47c1,1.3-5.41,3.31-6.23,3.35l.48-5.28c.53-.52,5.57,1.68,5.75,1.93Z" fill="#f4f3f2"/><path d="M162.58,191.32c-13.82,1.78-12.36,22.53.38,24.28,19.48,2.69,18.33-26.69-.38-24.28ZM170.19,208.77c-5.33,5.28-14.39-1.06-11.85-8.26,1.83-5.16,8.38-5.61,11.79-1.66,2.21,2.56,2.52,7.48.06,9.92Z" fill="#62503e"/><path d="M107.96,188.6c-9.52-4.59-19.87,3.27-17.22,13.62,1.92,7.49,8.56,10.8,15.83,9.11,10.69-2.49,10.72-18.24,1.39-22.73ZM107.84,204.93c-6.31,6.25-16.48-3.77-10.65-10.41,6.36-7.23,16.96,4.16,10.65,10.41Z" fill="#62503e"/><path d="M235.12,196.96c-.7.71,2.2,7.12-1.32,8.07-2.07.56-3.45-1.87-3.01-3.76-1.89.38-1.87,2.21-4.2,1.08-3.71-1.8,2.83-8.02,5.05-9.11,1.91-.94,7.52-2.85,7.31,1.03-.17,3-3.57,2.44-3.82,2.7Z" fill="#62503e"/><path d="M259.44,300.89c-1.03.97-3.6.94-4.1-.69s.53-7.03.4-9.52c-.49-9.07-5.71-29.76-12.23-36.21-2.45-2.42-8.63-4.2-12.03-4.31-2.21-.07-7.91,3.17-6.35-2.05,1.33-4.45,13.01-1.83,16.2-.57,12.06,4.76,16.69,24.53,18.57,36.1.53,3.25,1.82,15.1-.46,17.24Z" fill="#5f4d3a"/><path d="M170.19,208.77c-5.33,5.28-14.39-1.06-11.85-8.25,1.83-5.17,8.38-5.61,11.79-1.67,2.21,2.56,2.53,7.48.06,9.92Z" fill="#fafaf9"/><path d="M107.84,204.93c-6.31,6.25-16.49-3.78-10.65-10.41,6.36-7.23,16.96,4.16,10.65,10.41Z" fill="#fafaf9"/></g></svg>